<svg width="33" height="22" fill="none" xmlns="http://www.w3.org/2000/svg"><path fill-rule="evenodd" clip-rule="evenodd" d="M2.327.887A2.323 2.323 0 000 3.205v16.477A2.322 2.322 0 002.327 22h28.346A2.323 2.323 0 0033 19.682V3.204A2.322 2.322 0 0030.673.888H2.327z" fill="#4D4D4D"/><path fill-rule="evenodd" clip-rule="evenodd" d="M17.563 7.68c1.31 0 2.37.994 2.37 2.222v.001c0 1.228-1.06 2.223-2.37 2.223-1.309 0-2.37-.995-2.37-2.223v-.001c0-1.228 1.061-2.221 2.37-2.221zm-3.722.03c.374 0 .688.074 1.07.256v.959c-.362-.332-.676-.47-1.09-.47-.816 0-1.457.632-1.457 1.435 0 .845.622 1.44 1.497 1.44.394 0 .702-.13 1.05-.457v.96a2.535 2.535 0 01-1.09.243c-1.324 0-2.352-.953-2.352-2.18 0-1.215 1.056-2.187 2.372-2.187zm-4.109.026c.489 0 .936.156 1.31.463l-.455.558c-.226-.238-.44-.338-.7-.338-.375 0-.648.2-.648.463 0 .226.153.345.674.526.989.339 1.282.64 1.282 1.303 0 .81-.634 1.372-1.537 1.372-.661 0-1.142-.244-1.542-.795l.561-.507c.2.363.534.557.949.557.387 0 .674-.25.674-.59 0-.175-.087-.325-.26-.431-.088-.05-.26-.126-.601-.239-.816-.275-1.096-.57-1.096-1.145 0-.684.601-1.197 1.39-1.197zm9.931.072h.95l1.188 2.807 1.203-2.807h.942l-1.925 4.286h-.467l-1.891-4.286zm-16.81.007h1.275c1.41 0 2.392.859 2.392 2.092 0 .615-.301 1.21-.81 1.604-.427.333-.914.482-1.589.482H2.852V7.815zm4.066 0h.87v4.178h-.87V7.815zm17.42 0h2.464v.708h-1.596v.927h1.538v.708h-1.538v1.128h1.596v.707H24.34V7.815zm3.04 0h1.288c1.003 0 1.577.451 1.577 1.233 0 .64-.36 1.06-1.015 1.185l1.403 1.76h-1.069l-1.203-1.678h-.113v1.678h-.868V7.815zm.868.658v1.265h.254c.555 0 .849-.226.849-.646 0-.406-.294-.62-.835-.62h-.268zm-24.526.05v2.763h.233c.561 0 .916-.101 1.189-.332.3-.251.481-.652.481-1.053 0-.4-.18-.79-.481-1.04-.287-.244-.628-.338-1.19-.338h-.232z" fill="#fff"/><path fill-rule="evenodd" clip-rule="evenodd" d="M33 13.039c-1.103.772-9.354 6.293-23.64 8.96h21.313a2.323 2.323 0 002.326-2.318V13.04z" fill="#F47216"/></svg>