<svg width="33" height="21" fill="none" xmlns="http://www.w3.org/2000/svg"><path d="M31.24 0H1.76C.788 0 0 .795 0 1.776v17.366c0 .98.788 1.776 1.76 1.776h29.48c.972 0 1.76-.795 1.76-1.776V1.776C33 .796 32.212 0 31.24 0z" fill="#F4F4F4"/><path fill-rule="evenodd" clip-rule="evenodd" d="M27.217 18.748a.186.186 0 00-.132.054.182.182 0 000 .258.186.186 0 00.316-.129.184.184 0 00-.184-.183zm0 .326a.14.14 0 01-.142-.143.14.14 0 11.281 0c0 .04-.014.074-.04.101a.138.138 0 01-.1.042zm.01-.229h-.077v.17h.036v-.063h.016l.051.063h.043l-.055-.064a.067.067 0 00.04-.017.042.042 0 00.014-.034.05.05 0 00-.018-.04.077.077 0 00-.05-.014zm0 .032a.04.04 0 01.023.006.02.02 0 01.008.017.02.02 0 01-.008.017.04.04 0 01-.023.006h-.041v-.046h.041zm-20.179.12h-.385v-1.816h.378v.222s.331-.27.528-.267c.384.006.612.335.612.335s.186-.335.605-.335c.619 0 .71.572.71.572v1.282h-.37v-1.13s0-.343-.4-.343c-.416 0-.454.343-.454.343v1.13h-.385v-1.137s-.037-.359-.385-.359c-.453 0-.461.366-.461.366l.007 1.137zm11.715-1.861c-.197-.004-.529.267-.529.267v-.221h-.378v1.815h.385l-.007-1.137s.009-.365.46-.365c.085 0 .15.02.202.052v-.001l.125-.354a.687.687 0 00-.258-.056zm5.427 0c-.198-.004-.53.267-.53.267v-.221h-.377v1.815h.385l-.007-1.137s.008-.365.46-.365c.085 0 .15.02.201.052v-.001l.126-.354a.687.687 0 00-.259-.056zm-13.449-.008c-.576 0-.881.523-.883.96-.002.449.347.966.9.966.322 0 .586-.24.586-.24v.184h.379v-1.817h-.38v.229s-.25-.282-.602-.282zm.074.37c.31 0 .561.272.561.607 0 .335-.251.606-.561.606-.31 0-.56-.271-.56-.606 0-.335.25-.607.56-.607zm10.985-.37c-.577 0-.882.523-.884.96-.001.449.348.966.9.966.322 0 .587-.24.587-.24l-.001.184h.38v-1.817H22.4v.229s-.249-.282-.601-.282zm.073.37c.31 0 .562.272.562.607 0 .335-.252.606-.561.606-.31 0-.56-.271-.56-.606 0-.335.25-.607.56-.607zm3.567-.37c-.576 0-.881.523-.883.96-.001.449.348.966.9.966.322 0 .586-.24.586-.24v.185h.379v-2.535h-.38v.946s-.25-.282-.602-.282zm.074.37c.31 0 .562.272.562.607 0 .335-.252.606-.562.606-.31 0-.56-.27-.56-.606 0-.335.25-.607.56-.607zm-12.634 1.56c-.393 0-.756-.244-.756-.244l.166-.26s.343.161.59.161c.16 0 .427-.052.43-.214.003-.17-.45-.22-.45-.22s-.675-.01-.675-.573c0-.354.337-.58.77-.58.25 0 .717.221.717.221l-.188.298s-.361-.146-.552-.153c-.16-.006-.355.072-.355.214 0 .385 1.126-.03 1.126.748 0 .51-.459.602-.824.602zm1.448-2.402v.528h-.335v.382h.335v.913s-.03.617.628.617c.181 0 .537-.136.537-.136l-.152-.396s-.141.122-.301.118c-.304-.008-.296-.205-.296-.205v-.911h.627v-.382h-.627v-.528h-.416zm2.282.494c-.618 0-.927.515-.924.961.002.46.28.976.961.976.291 0 .7-.258.7-.258l-.176-.31s-.279.2-.524.2c-.49 0-.523-.484-.523-.484h1.315s.098-1.084-.829-1.084zm-.056.357h.046c.462 0 .46.441.46.441h-.936s-.022-.415.43-.441zm3.966 1.008l.177.356s-.28.184-.593.184c-.65 0-1.01-.494-1.01-.96 0-.734.574-.95.961-.95.353 0 .657.205.657.205l-.197.356s-.12-.189-.47-.189-.534.305-.534.593c0 .324.215.6.54.6.254 0 .47-.195.47-.195z" fill="#000"/><path fill-rule="evenodd" clip-rule="evenodd" d="M27.477 12.375v-.246h-.063l-.073.17-.073-.17h-.063v.246h.045v-.185l.068.16h.046l.069-.16v.185h.044zm-.401 0v-.204h.081v-.041h-.207v.041h.082v.204h.044zm.414-3.645c0 3.793-3.039 6.869-6.788 6.869-3.75 0-6.789-3.076-6.789-6.87 0-3.793 3.04-6.869 6.789-6.869 3.75 0 6.789 3.076 6.789 6.87z" fill="#F79F1A"/><path fill-rule="evenodd" clip-rule="evenodd" d="M19.116 8.73c0 3.793-3.04 6.869-6.789 6.869-3.75 0-6.789-3.076-6.789-6.87 0-3.793 3.04-6.869 6.79-6.869 3.748 0 6.788 3.076 6.788 6.87z" fill="#EA001B"/><path fill-rule="evenodd" clip-rule="evenodd" d="M16.514 3.322a6.885 6.885 0 00-2.6 5.407 6.888 6.888 0 002.6 5.409 6.888 6.888 0 002.601-5.41 6.885 6.885 0 00-2.6-5.406z" fill="#FF5F01"/></svg>