<svg width="58" height="16" fill="none" xmlns="http://www.w3.org/2000/svg"><path d="M21.615 3.272h-3.2a.435.435 0 00-.288.11.465.465 0 00-.15.28l-1.294 8.502a.285.285 0 00.06.222.268.268 0 00.204.097h1.527c.106 0 .208-.04.289-.11a.465.465 0 00.15-.28l.349-2.293a.465.465 0 01.15-.278.436.436 0 01.289-.111h1.012c2.108 0 3.324-1.057 3.641-3.152.143-.916.006-1.636-.407-2.14-.455-.554-1.262-.847-2.332-.847zm.369 3.106c-.175 1.19-1.052 1.19-1.9 1.19H19.6l.339-2.223a.28.28 0 01.09-.167.261.261 0 01.173-.066h.221c.578 0 1.123 0 1.404.342.168.203.22.506.156.924zm9.193-.039h-1.532a.261.261 0 00-.173.067.279.279 0 00-.09.167l-.068.444-.107-.161c-.332-.5-1.071-.666-1.81-.666-1.692 0-3.138 1.329-3.42 3.193-.146.93.062 1.82.571 2.44.467.57 1.135.807 1.93.807 1.363 0 2.12-.909 2.12-.909l-.069.441a.286.286 0 00.06.223.267.267 0 00.203.097h1.38a.44.44 0 00.29-.11.465.465 0 00.15-.279l.827-5.435a.285.285 0 00-.06-.222.268.268 0 00-.202-.097zm-2.135 3.09c-.148.908-.843 1.517-1.729 1.517-.445 0-.8-.148-1.028-.428-.227-.279-.313-.675-.24-1.116.137-.9.843-1.528 1.716-1.528.435 0 .788.15 1.021.432.234.286.326.685.26 1.124zm10.293-3.09h-1.54a.434.434 0 00-.367.203l-2.123 3.241-.9-3.115a.462.462 0 00-.161-.237.435.435 0 00-.266-.092h-1.513a.259.259 0 00-.217.116.283.283 0 00-.036.25l1.696 5.158-1.594 2.332a.284.284 0 00.079.396c.041.027.09.04.138.04h1.538a.43.43 0 00.206-.052.45.45 0 00.16-.145l5.12-7.66a.283.283 0 00-.082-.395.26.26 0 00-.138-.04z" fill="#203881"/><path d="M44.431 3.272h-3.199a.435.435 0 00-.288.11.465.465 0 00-.15.28L39.5 12.163a.287.287 0 00.06.222.267.267 0 00.203.097h1.641a.305.305 0 00.202-.078.326.326 0 00.105-.195l.367-2.41a.465.465 0 01.15-.278.435.435 0 01.289-.111h1.012c2.108 0 3.323-1.057 3.642-3.152.143-.916.005-1.636-.409-2.14-.454-.554-1.26-.847-2.33-.847zm.37 3.106c-.175 1.19-1.052 1.19-1.9 1.19h-.483l.34-2.223a.279.279 0 01.09-.167.26.26 0 01.172-.066h.221c.578 0 1.123 0 1.405.342.168.203.219.506.154.924zm9.192-.039h-1.53a.26.26 0 00-.174.066.277.277 0 00-.09.168l-.067.444-.108-.161c-.332-.5-1.07-.666-1.809-.666-1.693 0-3.138 1.329-3.42 3.193-.145.93.062 1.82.57 2.44.468.57 1.135.807 1.93.807 1.364 0 2.12-.909 2.12-.909l-.068.441a.285.285 0 00.06.224.268.268 0 00.204.096h1.38a.435.435 0 00.288-.11.465.465 0 00.15-.279l.828-5.435a.286.286 0 00-.061-.222.268.268 0 00-.203-.097zm-2.135 3.09c-.147.908-.843 1.517-1.728 1.517-.444 0-.8-.148-1.029-.428-.226-.279-.312-.675-.24-1.116.139-.9.844-1.528 1.716-1.528.435 0 .789.15 1.022.432.234.286.327.685.259 1.124zm3.941-5.924l-1.313 8.659a.285.285 0 00.06.222.268.268 0 00.203.097h1.32a.45.45 0 00.44-.39l1.294-8.502a.287.287 0 00-.06-.222.267.267 0 00-.203-.097h-1.478a.261.261 0 00-.173.066.28.28 0 00-.09.167z" fill="#179BD7"/><path d="M3.399 14.135l.245-1.61-.545-.014H.497L2.305.627a.155.155 0 01.05-.093.145.145 0 01.097-.037h4.387c1.457 0 2.462.315 2.987.935.246.29.402.595.478.93.08.35.081.77.003 1.281l-.005.037v.328l.246.145c.188.098.357.232.498.393.21.25.347.565.404.94.06.386.04.844-.057 1.363-.113.598-.294 1.118-.54 1.544a3.137 3.137 0 01-.853.97c-.325.239-.712.42-1.15.537a5.54 5.54 0 01-1.436.172h-.342a1.01 1.01 0 00-.667.255c-.186.165-.31.393-.348.644l-.026.145-.432 2.838-.02.105c-.005.033-.014.05-.027.06a.072.072 0 01-.045.017H3.399z" fill="#253B80"/><path d="M10.781 3.717a8.338 8.338 0 01-.045.267c-.579 3.08-2.558 4.143-5.086 4.143H4.363c-.31 0-.57.233-.618.549l-.66 4.332-.186 1.229a.354.354 0 00.075.275.331.331 0 00.25.12h2.283c.27 0 .5-.204.543-.48l.022-.121.43-2.828.028-.155a.555.555 0 01.542-.48h.342c2.212 0 3.943-.932 4.45-3.625.21-1.126.101-2.065-.458-2.726a2.195 2.195 0 00-.625-.5z" fill="#179BD7"/><path d="M10.175 3.467a4.43 4.43 0 00-.563-.13 6.902 6.902 0 00-1.135-.085H5.04a.537.537 0 00-.357.136.574.574 0 00-.186.345l-.731 4.803-.021.14a.654.654 0 01.21-.393.612.612 0 01.408-.156H5.65c2.528 0 4.508-1.064 5.086-4.143.018-.091.032-.18.045-.267a3.022 3.022 0 00-.605-.25z" fill="#1C2965"/><path d="M4.497 3.733a.572.572 0 01.185-.345.535.535 0 01.357-.136h3.439c.407 0 .787.028 1.135.086.234.038.466.096.692.171.171.059.33.128.476.208.172-1.138-.002-1.912-.595-2.614C9.532.331 8.351 0 6.839 0H2.452a.634.634 0 00-.62.55L.005 12.556a.405.405 0 00.085.314.38.38 0 00.286.137h2.71l.68-4.472.73-4.803z" fill="#203881"/></svg>