<svg width="10" height="18" viewBox="0 0 10 18" fill="none" xmlns="http://www.w3.org/2000/svg">
<path d="M9.49894 0.0037452L7.16477 0C4.54241 0 2.84772 1.73871 2.84772 4.42982V6.47227H0.500815C0.298015 6.47227 0.133789 6.63668 0.133789 6.83949V9.79876C0.133789 10.0016 0.298202 10.1658 0.500815 10.1658H2.84772V17.633C2.84772 17.8358 3.01195 18 3.21475 18H6.27679C6.47959 18 6.64382 17.8356 6.64382 17.633V10.1658H9.3879C9.5907 10.1658 9.75492 10.0016 9.75492 9.79876L9.75605 6.83949C9.75605 6.74211 9.71728 6.64886 9.64856 6.57994C9.57984 6.51103 9.48621 6.47227 9.38883 6.47227H6.64382V4.74086C6.64382 3.90868 6.84212 3.48622 7.92616 3.48622L9.49857 3.48566C9.70118 3.48566 9.8654 3.32124 9.8654 3.11863V0.370775C9.8654 0.168347 9.70137 0.00411972 9.49894 0.0037452Z" fill="#3B5998"/>
</svg>
