<svg width="33" height="22" viewBox="0 0 33 22" fill="none" xmlns="http://www.w3.org/2000/svg">
<path d="M31.24 0.886719H1.76C0.787979 0.886719 0 1.67162 0 2.63984V19.7766C0 20.7448 0.787979 21.5297 1.76 21.5297H31.24C32.212 21.5297 33 20.7448 33 19.7766V2.63984C33 1.67162 32.212 0.886719 31.24 0.886719Z" fill="#0079BE"/>
<path fill-rule="evenodd" clip-rule="evenodd" d="M25.7371 11.3154C25.7371 6.95818 22.086 3.94643 18.0857 3.94788H14.6431C10.595 3.94643 7.26294 6.95908 7.26294 11.3154C7.26294 15.3007 10.595 18.5751 14.6431 18.5559H18.0857C22.086 18.575 25.7371 15.2998 25.7371 11.3154Z" fill="white"/>
<path fill-rule="evenodd" clip-rule="evenodd" d="M14.6643 4.56519C10.9653 4.56634 7.96779 7.55897 7.96692 11.2525C7.96779 14.9453 10.9652 17.9376 14.6643 17.9388C18.3643 17.9376 21.3624 14.9453 21.3629 11.2525C21.3624 7.55897 18.3643 4.56634 14.6643 4.56519Z" fill="#0079BE"/>
<path fill-rule="evenodd" clip-rule="evenodd" d="M10.4309 11.2343C10.4344 9.42947 11.5637 7.89041 13.1563 7.27881V15.1889C11.5637 14.5776 10.4344 13.0394 10.4309 11.2343ZM16.1949 15.1909V7.27881C17.788 7.88893 18.9191 9.42886 18.922 11.2346C18.9191 13.0408 17.788 14.5796 16.1949 15.1909Z" fill="white"/>
</svg>
