<svg width="33" height="22" viewBox="0 0 33 22" fill="none" xmlns="http://www.w3.org/2000/svg">
<path fill-rule="evenodd" clip-rule="evenodd" d="M2.32659 0.886719C1.04189 0.886719 0 1.92466 0 3.20471V19.682C0 20.9623 1.04156 22 2.32659 22H30.6734C31.9581 22 33 20.9621 33 19.682V12.2043V3.20471C33 1.92442 31.9584 0.886719 30.6734 0.886719H2.32659Z" fill="#4D4D4D"/>
<path fill-rule="evenodd" clip-rule="evenodd" d="M17.5633 7.68054C18.8723 7.68054 19.9334 8.67426 19.9334 9.90182V9.90322C19.9334 11.1308 18.8723 12.1259 17.5633 12.1259C16.2543 12.1259 15.1931 11.1308 15.1931 9.90322V9.90182C15.1931 8.67426 16.2543 7.68054 17.5633 7.68054ZM13.8411 7.70919C14.215 7.70919 14.5285 7.7844 14.9101 7.96583V8.92465C14.5487 8.59326 14.2351 8.45458 13.8204 8.45458C13.0054 8.45458 12.3645 9.08732 12.3645 9.88956C12.3645 10.7355 12.9856 11.3306 13.8608 11.3306C14.2548 11.3306 14.5626 11.1991 14.9101 10.8731V11.8324C14.5149 12.0069 14.1946 12.0758 13.8204 12.0758C12.4971 12.0758 11.4689 11.1235 11.4689 9.89549C11.4689 8.68067 12.5245 7.70919 13.8411 7.70919ZM9.73246 7.73561C10.2209 7.73561 10.6679 7.8924 11.0416 8.19893L10.5869 8.75723C10.3605 8.5193 10.1464 8.41894 9.88607 8.41894C9.51151 8.41894 9.23873 8.6189 9.23873 8.88201C9.23873 9.10767 9.39187 9.2271 9.91334 9.40805C10.9019 9.74702 11.1948 10.0476 11.1948 10.7113C11.1948 11.5202 10.5612 12.0832 9.65817 12.0832C8.99691 12.0832 8.51616 11.839 8.11576 11.2879L8.67708 10.7809C8.87725 11.1437 9.21111 11.3381 9.62562 11.3381C10.0133 11.3381 10.3003 11.0873 10.3003 10.7488C10.3003 10.5733 10.2134 10.4229 10.0398 10.3165C9.95237 10.2661 9.77924 10.191 9.43903 10.0785C8.62285 9.80301 8.34283 9.50849 8.34283 8.93288C8.34283 8.24912 8.94418 7.73561 9.73246 7.73561ZM19.663 7.80845H20.6123L21.8005 10.6148L23.0039 7.80845H23.946L22.0213 12.0937H21.5537L19.663 7.80845ZM2.85217 7.81487H4.12777C5.5371 7.81487 6.51956 8.67379 6.51956 9.90684C6.51956 10.5217 6.219 11.1161 5.71075 11.5106C5.28307 11.8436 4.79578 11.993 4.12107 11.993H2.85217V7.81487ZM6.91941 7.81487H7.78846V11.993H6.91941V7.81487ZM24.3389 7.81487H26.8034V8.52281H25.2073V9.45019H26.7446V10.1578H25.2073V11.2856H26.8034V11.993H24.3389V7.81487ZM27.3791 7.81487H28.6675C29.6698 7.81487 30.2442 8.26622 30.2442 9.04844C30.2442 9.68813 29.884 10.1079 29.2294 10.2329L30.6318 11.993H29.5631L28.3603 10.3145H28.247V11.993H27.3791V7.81487ZM28.247 8.47293V9.73827H28.501C29.0559 9.73827 29.35 9.51231 29.35 9.09231C29.35 8.68571 29.0558 8.47293 28.5147 8.47293H28.247ZM3.72055 8.52281V11.2856H3.95374C4.5153 11.2856 4.86994 11.1847 5.14299 10.9536C5.44353 10.7026 5.62432 10.3018 5.62432 9.90084C5.62432 9.50052 5.44353 9.11169 5.14299 8.86069C4.85595 8.61712 4.5153 8.52281 3.95374 8.52281H3.72055Z" fill="white"/>
<path fill-rule="evenodd" clip-rule="evenodd" d="M32.9992 13.0389C31.8971 13.8114 23.6459 19.3325 9.35962 21.9994H30.6726C31.9573 21.9994 32.9992 20.9614 32.9992 19.6814V13.0389Z" fill="#F47216"/>
</svg>
