<svg width="33" height="22" viewBox="0 0 33 22" fill="none" xmlns="http://www.w3.org/2000/svg">
<path d="M31.24 0.886719H1.76C0.787979 0.886719 0 1.67162 0 2.63984V19.7766C0 20.7448 0.787979 21.5297 1.76 21.5297H31.24C32.212 21.5297 33 20.7448 33 19.7766V2.63984C33 1.67162 32.212 0.886719 31.24 0.886719Z" fill="#0E4C96"/>
<path fill-rule="evenodd" clip-rule="evenodd" d="M27.1587 16.0848C27.1587 17.9087 25.6747 19.3877 23.8429 19.3877H5.84131V6.33217C5.84131 4.50777 7.32556 3.02883 9.15736 3.02883L27.1587 3.02881V16.0848H27.1587Z" fill="white"/>
<path fill-rule="evenodd" clip-rule="evenodd" d="M21.2899 11.495C21.804 11.5061 22.3211 11.4724 22.8333 11.5126C23.3519 11.609 23.4769 12.391 23.0162 12.6472C22.7019 12.8159 22.3283 12.7099 21.9875 12.7398H21.2899V11.495ZM23.1305 10.0862C23.2448 10.4879 22.8561 10.8484 22.4676 10.7932H21.2899C21.298 10.4144 21.2737 10.0033 21.3019 9.64447C21.7737 9.6577 22.25 9.61748 22.7191 9.66552C22.9207 9.71591 23.0893 9.88097 23.1305 10.0862ZM25.9654 4.12983C25.9873 4.89688 25.9685 5.70442 25.9748 6.48704C25.9733 9.66878 25.978 12.8506 25.9724 16.0323C25.9518 17.2248 24.8907 18.2607 23.702 18.2845C22.5119 18.2894 21.3218 18.2852 20.1317 18.2866V13.4764C21.4284 13.4697 22.7259 13.4899 24.0221 13.4663C24.6234 13.4286 25.2819 13.0334 25.3099 12.3743C25.3808 11.7124 24.7542 11.2545 24.1592 11.1821C23.9305 11.1762 23.9373 11.1157 24.1592 11.0894C24.7265 10.9672 25.1721 10.3823 25.0052 9.79649C24.8628 9.18037 24.1791 8.9419 23.6105 8.94305C22.451 8.9352 21.2913 8.94194 20.1317 8.93969C20.1393 8.04171 20.1161 7.14272 20.1443 6.24542C20.2362 5.07451 21.3238 4.1089 22.496 4.12985C23.6524 4.12984 24.809 4.12988 25.9654 4.12983Z" fill="url(#paint0_linear)"/>
<path fill-rule="evenodd" clip-rule="evenodd" d="M7.02852 6.36691C7.05814 5.17637 8.1236 4.1487 9.31099 4.13133C10.4966 4.12771 11.6822 4.13082 12.8678 4.12978C12.8646 8.1131 12.8743 12.0967 12.8629 16.0798C12.8172 17.2559 11.7634 18.264 10.589 18.2847C9.4012 18.289 8.21325 18.2853 7.02537 18.2866V13.3141C8.17917 13.5856 9.38915 13.7012 10.5662 13.521C11.2699 13.4082 12.0397 13.0642 12.2779 12.337C12.4533 11.7151 12.3545 11.0605 12.3806 10.4221V8.93966H10.3435C10.3344 9.92012 10.3623 10.9023 10.3288 11.8816C10.2738 12.4836 9.67554 12.866 9.10558 12.8456C8.39865 12.853 6.99803 12.3355 6.99803 12.3355C6.99451 10.4983 7.01857 8.19777 7.02852 6.36691Z" fill="url(#paint1_linear)"/>
<path fill-rule="evenodd" clip-rule="evenodd" d="M13.6277 9.5379C13.5206 9.56057 13.6061 9.1741 13.5787 9.02747C13.586 8.10049 13.5634 7.17253 13.5912 6.24622C13.6828 5.07037 14.7788 4.10234 15.9557 4.12984H19.4214C19.4181 8.11314 19.4279 12.0967 19.4165 16.0798C19.3708 17.2559 18.3168 18.2639 17.1425 18.2848C15.9546 18.2891 14.7666 18.2854 13.5787 18.2866V12.8389C14.39 13.502 15.4927 13.6052 16.5034 13.607C17.2654 13.6068 18.0229 13.4898 18.7628 13.3147V12.3166C17.9289 12.7306 16.9486 12.9936 16.0241 12.7557C15.3793 12.5957 14.9112 11.975 14.9217 11.3121C14.8469 10.6228 15.2527 9.89495 15.9329 9.69001C16.7772 9.42668 17.6976 9.62811 18.4891 9.97042C18.6587 10.0589 18.8307 10.1686 18.7628 9.88624V9.10173C17.4391 8.78804 16.0304 8.67257 14.7004 9.01387C14.3155 9.12204 13.9404 9.28608 13.6277 9.5379Z" fill="url(#paint2_linear)"/>
<defs>
<linearGradient id="paint0_linear" x1="20.1317" y1="11.2082" x2="25.9749" y2="11.2082" gradientUnits="userSpaceOnUse">
<stop stop-color="#007B40"/>
<stop offset="1" stop-color="#55B330"/>
</linearGradient>
<linearGradient id="paint1_linear" x1="7.02537" y1="11.2082" x2="12.8678" y2="11.2082" gradientUnits="userSpaceOnUse">
<stop stop-color="#1D2970"/>
<stop offset="1" stop-color="#006DBA"/>
</linearGradient>
<linearGradient id="paint2_linear" x1="13.5787" y1="11.2082" x2="19.4214" y2="11.2082" gradientUnits="userSpaceOnUse">
<stop stop-color="#6E2B2F"/>
<stop offset="1" stop-color="#E30138"/>
</linearGradient>
</defs>
</svg>
