<svg width="33" height="21" viewBox="0 0 33 21" fill="none" xmlns="http://www.w3.org/2000/svg">
<path d="M31.24 0H1.76C0.787979 0 0 0.795353 0 1.77647V19.1415C0 20.1226 0.787979 20.9179 1.76 20.9179H31.24C32.212 20.9179 33 20.1226 33 19.1415V1.77647C33 0.795353 32.212 0 31.24 0Z" fill="#F4F4F4"/>
<path fill-rule="evenodd" clip-rule="evenodd" d="M27.2168 18.7482C27.1634 18.7495 27.1195 18.7674 27.0849 18.8018C27.0503 18.8362 27.0325 18.8793 27.0312 18.9311C27.0325 18.9825 27.0503 19.0254 27.0849 19.06C27.1195 19.0946 27.1634 19.1126 27.2168 19.114C27.2689 19.1126 27.3124 19.0946 27.347 19.06C27.3817 19.0254 27.3997 18.9825 27.401 18.9311C27.3997 18.8793 27.3818 18.8362 27.3472 18.8018C27.3126 18.7674 27.2691 18.7495 27.2168 18.7482ZM27.2168 19.0737C27.1761 19.0727 27.1426 19.0588 27.1162 19.032C27.0898 19.0052 27.0761 18.9716 27.0752 18.9311C27.0761 18.8905 27.0898 18.8568 27.1162 18.8303C27.1426 18.8037 27.1761 18.7899 27.2168 18.789C27.2566 18.7899 27.2896 18.8037 27.3158 18.8303C27.3421 18.8568 27.3557 18.8905 27.3566 18.9311C27.3557 18.9716 27.3421 19.0052 27.3158 19.032C27.2896 19.0588 27.2566 19.0727 27.2168 19.0737ZM27.2275 18.8455H27.1498V19.0154H27.1857V18.9517H27.2022L27.2532 19.0154H27.2963L27.2412 18.9513C27.2584 18.9491 27.2716 18.9435 27.2809 18.9344C27.2901 18.9253 27.2948 18.9138 27.2949 18.8997C27.2948 18.8829 27.2889 18.8697 27.2773 18.8601C27.2657 18.8505 27.2491 18.8456 27.2275 18.8455ZM27.227 18.8773C27.2367 18.8773 27.2442 18.8792 27.2497 18.883C27.2552 18.8867 27.258 18.8923 27.2581 18.8997C27.258 18.9073 27.2552 18.913 27.2497 18.9169C27.2442 18.9207 27.2367 18.9226 27.227 18.9226H27.1857V18.8773H27.227Z" fill="black"/>
<path fill-rule="evenodd" clip-rule="evenodd" d="M7.04831 18.9972H6.66309V17.1815H7.04076V17.4028C7.04076 17.4028 7.37248 17.1324 7.5695 17.1358C7.95258 17.1423 8.18133 17.4714 8.18133 17.4714C8.18133 17.4714 8.36689 17.1358 8.78561 17.1358C9.4048 17.1358 9.49563 17.7079 9.49563 17.7079V18.9896H9.12551V17.8605C9.12551 17.8605 9.12684 17.5172 8.72518 17.5172C8.30982 17.5172 8.27197 17.8605 8.27197 17.8605V18.9896H7.88675V17.8529C7.88675 17.8529 7.84974 17.4943 7.50152 17.4943C7.04927 17.4943 7.04076 17.8605 7.04076 17.8605L7.04831 18.9972Z" fill="black"/>
<path fill-rule="evenodd" clip-rule="evenodd" d="M18.7627 17.1355C18.5657 17.1322 18.234 17.4025 18.234 17.4025V17.1818H17.856V18.997H18.2414L18.234 17.8604C18.234 17.8604 18.2426 17.495 18.6948 17.495C18.7788 17.495 18.844 17.5156 18.8957 17.5472V17.5457L19.0212 17.1922C18.9454 17.16 18.8593 17.1372 18.7627 17.1355Z" fill="black"/>
<path fill-rule="evenodd" clip-rule="evenodd" d="M24.1895 17.1355C23.9925 17.1322 23.6608 17.4025 23.6608 17.4025V17.1818H23.2827V18.997H23.6682L23.6608 17.8604C23.6608 17.8604 23.6693 17.495 24.1216 17.495C24.2056 17.495 24.2708 17.5156 24.3224 17.5472V17.5457L24.4479 17.1922C24.3722 17.16 24.286 17.1372 24.1895 17.1355V17.1355Z" fill="black"/>
<path fill-rule="evenodd" clip-rule="evenodd" d="M10.7412 17.1281C10.1647 17.1281 9.85958 17.6514 9.85804 18.0886C9.85645 18.5368 10.2054 19.0537 10.7574 19.0537C11.0795 19.0537 11.3441 18.8136 11.3441 18.8136L11.3434 18.9985H11.7226V17.181H11.3421V17.41C11.3421 17.41 11.0936 17.1281 10.7412 17.1281H10.7412ZM10.815 17.498C11.1248 17.498 11.3762 17.7701 11.3762 18.105C11.3762 18.44 11.1248 18.7106 10.815 18.7106C10.5053 18.7106 10.2553 18.44 10.2553 18.105C10.2553 17.7701 10.5053 17.498 10.815 17.498Z" fill="black"/>
<path fill-rule="evenodd" clip-rule="evenodd" d="M21.7997 17.1281C21.2231 17.1281 20.918 17.6514 20.9165 18.0886C20.9149 18.5368 21.2638 19.0537 21.8159 19.0537C22.138 19.0537 22.4026 18.8136 22.4026 18.8136L22.4019 18.9985H22.7811V17.181H22.4005V17.41C22.4005 17.41 22.1521 17.1281 21.7997 17.1281H21.7997ZM21.8735 17.498C22.1833 17.498 22.4347 17.7701 22.4347 18.105C22.4347 18.44 22.1833 18.7106 21.8735 18.7106C21.5638 18.7106 21.3138 18.44 21.3138 18.105C21.3138 17.7701 21.5638 17.498 21.8735 17.498Z" fill="black"/>
<path fill-rule="evenodd" clip-rule="evenodd" d="M25.4404 17.1281C24.8639 17.1281 24.5588 17.6514 24.5573 18.0887C24.5557 18.5369 24.9046 19.0538 25.4567 19.0538C25.7787 19.0538 26.0433 18.8136 26.0433 18.8136L26.0426 18.9986H26.4218V16.4636H26.0413V17.41C26.0413 17.41 25.7928 17.1281 25.4404 17.1281H25.4404ZM25.5143 17.498C25.824 17.498 26.0755 17.7701 26.0755 18.1051C26.0755 18.4401 25.824 18.7107 25.5143 18.7107C25.2045 18.7107 24.9545 18.4401 24.9545 18.1051C24.9545 17.7701 25.2045 17.498 25.5143 17.498Z" fill="black"/>
<path fill-rule="evenodd" clip-rule="evenodd" d="M12.8794 19.0583C12.4866 19.0583 12.124 18.8142 12.124 18.8142L12.2902 18.5548C12.2902 18.5548 12.6333 18.715 12.8794 18.715C13.0393 18.715 13.3067 18.6628 13.3099 18.5014C13.3133 18.3307 12.8605 18.2801 12.8605 18.2801C12.8605 18.2801 12.1845 18.2708 12.1845 17.708C12.1845 17.354 12.5221 17.1282 12.9549 17.1282C13.205 17.1282 13.6725 17.3494 13.6725 17.3494L13.4836 17.6469C13.4836 17.6469 13.1227 17.5013 12.9322 17.4944C12.7714 17.4885 12.5772 17.5663 12.5772 17.708C12.5772 18.0929 13.7027 17.678 13.7027 18.4556C13.7027 18.9658 13.2443 19.0583 12.8794 19.0583Z" fill="black"/>
<path fill-rule="evenodd" clip-rule="evenodd" d="M14.3279 16.656V17.184H13.9927V17.5659H14.3279V18.4787C14.3279 18.4787 14.2982 19.0963 14.9556 19.0963C15.1373 19.0963 15.4932 18.9605 15.4932 18.9605L15.341 18.5638C15.341 18.5638 15.1995 18.6857 15.0398 18.6816C14.736 18.6738 14.7444 18.4772 14.7444 18.4772V17.5659H15.3706V17.184H14.7444V16.656H14.3279Z" fill="black"/>
<path fill-rule="evenodd" clip-rule="evenodd" d="M16.6102 17.1505C15.992 17.1505 15.6831 17.6648 15.6857 18.1111C15.6883 18.5701 15.9669 19.0866 16.6471 19.0866C16.9382 19.0866 17.3471 18.8286 17.3471 18.8286L17.1714 18.5198C17.1714 18.5198 16.8924 18.7197 16.6471 18.7197C16.1561 18.7197 16.1243 18.2349 16.1243 18.2349H17.4387C17.4387 18.2349 17.5367 17.1505 16.6102 17.1505ZM16.5541 17.507C16.5686 17.5062 16.5843 17.507 16.5998 17.507C17.0624 17.507 17.0591 17.9485 17.0591 17.9485H16.1243C16.1243 17.9485 16.1022 17.533 16.5541 17.507Z" fill="black"/>
<path fill-rule="evenodd" clip-rule="evenodd" d="M20.5202 18.5151L20.6965 18.8711C20.6965 18.8711 20.4171 19.0545 20.1036 19.0545C19.4545 19.0545 19.0941 18.5612 19.0941 18.0943C19.0941 17.3606 19.6677 17.1449 20.0555 17.1449C20.4076 17.1449 20.7125 17.3499 20.7125 17.3499L20.5149 17.7059C20.5149 17.7059 20.395 17.5171 20.0448 17.5171C19.6952 17.5171 19.5107 17.8216 19.5107 18.1105C19.5107 18.4343 19.7255 18.7093 20.0502 18.7093C20.3049 18.7093 20.5202 18.5151 20.5202 18.5151Z" fill="black"/>
<path fill-rule="evenodd" clip-rule="evenodd" d="M27.4774 12.3754V12.1293H27.414L27.3411 12.2985L27.2682 12.1293H27.2048V12.3754H27.2495V12.1898L27.3179 12.3498H27.3643L27.4326 12.1893V12.3754H27.4774ZM27.076 12.3754V12.1713H27.1572V12.1297H26.9504V12.1713H27.0316V12.3754H27.076Z" fill="#F79F1A"/>
<path fill-rule="evenodd" clip-rule="evenodd" d="M27.4906 8.72955C27.4906 12.5234 24.4513 15.599 20.702 15.599C16.9527 15.599 13.9133 12.5234 13.9133 8.72955C13.9133 4.93566 16.9527 1.86011 20.702 1.86011C24.4513 1.86011 27.4906 4.93566 27.4906 8.72955Z" fill="#F79F1A"/>
<path fill-rule="evenodd" clip-rule="evenodd" d="M19.1158 8.72955C19.1158 12.5234 16.0764 15.599 12.3271 15.599C8.57784 15.599 5.53845 12.5234 5.53845 8.72955C5.53845 4.93566 8.57784 1.86011 12.3271 1.86011C16.0764 1.86011 19.1158 4.93566 19.1158 8.72955Z" fill="#EA001B"/>
<path fill-rule="evenodd" clip-rule="evenodd" d="M16.5144 3.3219C14.9305 4.57947 13.9137 6.53366 13.9137 8.72893C13.9137 10.9242 14.9305 12.8799 16.5144 14.1375C18.0984 12.8799 19.1152 10.9242 19.1152 8.72893C19.1152 6.53366 18.0984 4.57947 16.5144 3.3219Z" fill="#FF5F01"/>
</svg>
