<svg width="58" height="16" viewBox="0 0 58 16" fill="none" xmlns="http://www.w3.org/2000/svg">
<path d="M21.6148 3.27222H18.4159C18.31 3.27215 18.2075 3.31129 18.127 3.38258C18.0465 3.45387 17.9932 3.55263 17.9767 3.66107L16.6829 12.1639C16.6769 12.2033 16.6793 12.2436 16.6898 12.282C16.7004 12.3205 16.7188 12.3561 16.7439 12.3864C16.7689 12.4167 16.8001 12.441 16.8351 12.4577C16.8701 12.4743 16.9082 12.4829 16.9467 12.4829H18.4739C18.5798 12.4829 18.6823 12.4437 18.7629 12.3723C18.8434 12.3009 18.8967 12.2021 18.9131 12.0936L19.262 9.80022C19.2784 9.69178 19.3316 9.59297 19.412 9.52159C19.4925 9.45021 19.5949 9.41095 19.7008 9.41088H20.7134C22.8206 9.41088 24.0367 8.35391 24.3543 6.25937C24.4975 5.343 24.3604 4.623 23.9465 4.11876C23.4918 3.56507 22.6854 3.27222 21.6148 3.27222ZM21.9838 6.37767C21.8089 7.56749 20.9319 7.56749 20.0838 7.56749H19.6011L19.9398 5.34543C19.9497 5.28042 19.9817 5.22121 20.0299 5.17846C20.0782 5.13571 20.1396 5.11222 20.2031 5.11222H20.4244C21.002 5.11222 21.5469 5.11222 21.8285 5.45355C21.9964 5.65719 22.0479 5.95973 21.9838 6.37767ZM31.1768 6.33937H29.645C29.5815 6.33937 29.52 6.36286 29.4718 6.40561C29.4235 6.44836 29.3915 6.50757 29.3816 6.57258L29.3138 7.0167L29.2067 6.85573C28.8751 6.35682 28.1356 6.19004 27.3975 6.19004C25.7047 6.19004 24.2589 7.51901 23.9773 9.38325C23.8309 10.3132 24.0391 11.2024 24.548 11.8225C25.0148 12.3927 25.6827 12.6303 26.4774 12.6303C27.8413 12.6303 28.5977 11.7212 28.5977 11.7212L28.5294 12.1624C28.5233 12.2018 28.5255 12.2422 28.5359 12.2807C28.5464 12.3191 28.5647 12.3548 28.5897 12.3852C28.6147 12.4156 28.6457 12.4401 28.6807 12.4568C28.7157 12.4736 28.7537 12.4823 28.7923 12.4824H30.1721C30.2781 12.4825 30.3806 12.4432 30.4611 12.3719C30.5416 12.3005 30.5949 12.2016 30.6113 12.0931L31.4392 6.6584C31.4453 6.61904 31.4431 6.57878 31.4327 6.54039C31.4223 6.50201 31.404 6.46642 31.3791 6.43609C31.3541 6.40575 31.3231 6.3814 31.2882 6.3647C31.2533 6.348 31.2153 6.33936 31.1768 6.33937ZM29.0416 9.42979C28.8938 10.3369 28.1992 10.9459 27.3133 10.9459C26.8684 10.9459 26.513 10.798 26.2847 10.5178C26.0583 10.2395 25.9722 9.84337 26.0443 9.40216C26.1823 8.50276 26.8885 7.87391 27.7609 7.87391C28.1959 7.87391 28.5495 8.02373 28.7824 8.3064C29.0158 8.59197 29.1085 8.99052 29.0416 9.42979ZM39.3352 6.33937H37.7958C37.7232 6.33949 37.6518 6.35796 37.5876 6.3932C37.5235 6.42843 37.4686 6.47935 37.4277 6.54155L35.3046 9.78325L34.4047 6.6681C34.3771 6.57308 34.3207 6.48982 34.2438 6.43061C34.167 6.37141 34.0738 6.33942 33.9781 6.33937H32.4654C32.423 6.33925 32.3811 6.34965 32.3433 6.3697C32.3055 6.38974 32.2729 6.41886 32.2481 6.45462C32.2234 6.49038 32.2072 6.53175 32.201 6.57529C32.1948 6.61884 32.1987 6.66329 32.2124 6.70494L33.908 11.8628L32.3139 14.1954C32.2856 14.2367 32.2688 14.2854 32.2653 14.336C32.2619 14.3866 32.272 14.4372 32.2944 14.4822C32.3169 14.5273 32.3509 14.5651 32.3927 14.5914C32.4345 14.6178 32.4825 14.6318 32.5314 14.6317H34.0689C34.1406 14.6318 34.2114 14.6139 34.275 14.5794C34.3386 14.545 34.3932 14.495 34.4342 14.4339L39.5541 6.77331C39.5818 6.73186 39.5981 6.68333 39.6011 6.63298C39.6042 6.58263 39.5939 6.53238 39.5713 6.48767C39.5488 6.44296 39.5148 6.40551 39.4732 6.37937C39.4316 6.35322 39.3838 6.33939 39.3352 6.33937Z" fill="#203881"/>
<path d="M44.4315 3.27221H41.2321C41.1263 3.27226 41.024 3.31145 40.9435 3.38273C40.8631 3.45402 40.8099 3.55271 40.7934 3.66106L39.4996 12.1639C39.4936 12.2032 39.4959 12.2435 39.5063 12.2819C39.5168 12.3203 39.5351 12.3559 39.5601 12.3862C39.5851 12.4165 39.6161 12.4408 39.6511 12.4575C39.686 12.4742 39.724 12.4829 39.7625 12.4829H41.4043C41.4783 12.4828 41.5499 12.4553 41.6062 12.4053C41.6624 12.3554 41.6996 12.2862 41.7111 12.2104L42.0783 9.80021C42.0947 9.69177 42.1479 9.59296 42.2283 9.52158C42.3087 9.4502 42.4111 9.41094 42.517 9.41088H43.5292C45.6369 9.41088 46.8525 8.35391 47.1706 6.25937C47.3142 5.343 47.1762 4.623 46.7622 4.11876C46.3081 3.56506 45.5021 3.27221 44.4315 3.27221ZM44.8005 6.37767C44.6261 7.56749 43.7491 7.56749 42.9006 7.56749H42.4183L42.7574 5.34543C42.7672 5.28041 42.799 5.22116 42.8472 5.17838C42.8954 5.1356 42.9568 5.11213 43.0203 5.11221H43.2415C43.8187 5.11221 44.3641 5.11221 44.6457 5.45355C44.8136 5.65718 44.8646 5.95973 44.8005 6.37767ZM53.9931 6.33937H52.4622C52.3987 6.33918 52.3372 6.36262 52.289 6.40542C52.2407 6.44821 52.2089 6.50752 52.1993 6.57258L52.1315 7.0167L52.0239 6.85573C51.6922 6.35682 50.9532 6.19003 50.2151 6.19003C48.5224 6.19003 47.077 7.519 46.7955 9.38324C46.6495 10.3132 46.8567 11.2024 47.3656 11.8225C47.8334 12.3927 48.5004 12.6303 49.2951 12.6303C50.659 12.6303 51.4153 11.7212 51.4153 11.7212L51.3471 12.1624C51.341 12.2019 51.3432 12.2424 51.3537 12.2809C51.3641 12.3194 51.3825 12.3551 51.4076 12.3856C51.4327 12.416 51.4639 12.4404 51.499 12.4571C51.5341 12.4739 51.5722 12.4825 51.6109 12.4824H52.9902C53.0961 12.4823 53.1985 12.4431 53.2789 12.3717C53.3594 12.3003 53.4126 12.2015 53.429 12.0931L54.2573 6.6584C54.2632 6.61891 54.2608 6.57858 54.2502 6.54017C54.2396 6.50175 54.2211 6.46617 54.196 6.43586C54.1709 6.40555 54.1398 6.38123 54.1047 6.36457C54.0697 6.34792 54.0316 6.33932 53.9931 6.33937ZM51.8578 9.42979C51.711 10.3369 51.0154 10.9459 50.1295 10.9459C49.6856 10.9459 49.3292 10.798 49.101 10.5178C48.8746 10.2395 48.7894 9.84337 48.8605 9.40215C48.9995 8.50276 49.7048 7.87391 50.5771 7.87391C51.0121 7.87391 51.3658 8.02373 51.5987 8.3064C51.833 8.59197 51.9257 8.99052 51.8578 9.42979ZM55.799 3.50543L54.4861 12.1639C54.4801 12.2032 54.4823 12.2435 54.4928 12.2819C54.5032 12.3203 54.5216 12.3559 54.5466 12.3862C54.5716 12.4165 54.6026 12.4408 54.6375 12.4575C54.6725 12.4742 54.7105 12.4829 54.7489 12.4829H56.0689C56.2883 12.4829 56.4744 12.318 56.5081 12.0935L57.8028 3.59124C57.8088 3.55183 57.8065 3.51154 57.7961 3.47313C57.7857 3.43473 57.7673 3.39912 57.7423 3.36876C57.7174 3.3384 57.6863 3.31401 57.6514 3.29726C57.6165 3.28051 57.5785 3.2718 57.54 3.27173H56.0619C55.9984 3.27196 55.9371 3.29561 55.889 3.33843C55.8408 3.38125 55.8089 3.44045 55.799 3.50543Z" fill="#179BD7"/>
<path d="M3.39892 14.1353L3.64355 12.5246L3.09863 12.5115H0.496582L2.30487 0.626401C2.31026 0.590087 2.32805 0.556987 2.35501 0.533135C2.38197 0.509284 2.4163 0.496268 2.45174 0.496462H6.83916C8.29571 0.496462 9.30089 0.810644 9.82569 1.43077C10.0717 1.72167 10.2284 2.02567 10.3042 2.36022C10.3837 2.71125 10.3851 3.13064 10.3075 3.64216L10.3019 3.67949V4.00725L10.5479 4.15173C10.7357 4.25037 10.9045 4.3838 11.046 4.54543C11.2565 4.79416 11.3926 5.11028 11.4502 5.48507C11.5096 5.87052 11.4899 6.32919 11.3926 6.84846C11.2804 7.4458 11.0989 7.96604 10.8538 8.39174C10.6375 8.77309 10.3468 9.10338 10.0002 9.36143C9.67461 9.60095 9.28779 9.78277 8.85045 9.89913C8.42668 10.0136 7.9435 10.0712 7.41355 10.0712H7.0721C6.82794 10.0712 6.59079 10.1624 6.40463 10.3258C6.21873 10.4909 6.09541 10.7191 6.05663 10.9697L6.0309 11.1146L5.59871 13.9534L5.57907 14.0577C5.57392 14.0906 5.56503 14.1071 5.55194 14.1183C5.53925 14.129 5.52342 14.135 5.50703 14.1353H3.39892Z" fill="#253B80"/>
<path d="M10.781 3.71735C10.7679 3.80413 10.7529 3.89286 10.7361 3.98401C10.1575 7.06329 8.178 8.12704 5.64985 8.12704H4.36263C4.05345 8.12704 3.79292 8.35977 3.74474 8.67589L3.08569 13.0085L2.89906 14.2366C2.89163 14.2853 2.89447 14.3351 2.90738 14.3826C2.9203 14.4301 2.94299 14.4741 2.97388 14.5116C3.00478 14.5491 3.04315 14.5792 3.08635 14.5999C3.12955 14.6205 3.17656 14.6313 3.22414 14.6313H5.50719C5.77755 14.6313 6.00721 14.4277 6.04977 14.1513L6.07223 14.031L6.50208 11.2034L6.52968 11.0483C6.57177 10.7709 6.8019 10.5673 7.07226 10.5673H7.41371C9.62566 10.5673 11.3572 9.63638 11.8633 6.94256C12.0748 5.81723 11.9653 4.87759 11.4059 4.21674C11.2286 4.01231 11.0168 3.84308 10.781 3.71735Z" fill="#179BD7"/>
<path d="M10.1749 3.46715C9.99013 3.41176 9.80219 3.36852 9.61219 3.3377C9.23674 3.27789 8.85729 3.24919 8.47744 3.25188H5.03861C4.90773 3.25178 4.78114 3.30021 4.68172 3.38842C4.58229 3.47663 4.51659 3.5988 4.49649 3.73285L3.76494 8.53576L3.7439 8.67588C3.76669 8.52298 3.84152 8.38359 3.95485 8.28292C4.06818 8.18225 4.21253 8.12696 4.36178 8.12703H5.64901C8.17715 8.12703 10.1566 7.06279 10.7352 3.984C10.7525 3.89285 10.767 3.80412 10.7801 3.71734C10.6275 3.63434 10.4683 3.56477 10.3044 3.50934C10.2615 3.49456 10.2183 3.4805 10.1749 3.46715Z" fill="#1C2965"/>
<path d="M4.49683 3.73285C4.51676 3.59876 4.58242 3.47653 4.6819 3.38837C4.78138 3.3002 4.90806 3.25194 5.03894 3.25236H8.47778C8.88519 3.25236 9.26546 3.28 9.61252 3.33818C9.84738 3.37644 10.079 3.43367 10.3052 3.50933C10.476 3.568 10.6345 3.63733 10.7809 3.71733C10.9531 2.57939 10.7795 1.80461 10.186 1.10303C9.5316 0.330667 8.35056 0 6.83928 0H2.45186C2.14315 0 1.87981 0.232727 1.8321 0.549333L0.00463519 12.5566C-0.00387685 12.6124 -0.000638311 12.6694 0.014128 12.7237C0.0288944 12.778 0.0548381 12.8284 0.0901746 12.8713C0.125511 12.9142 0.169402 12.9487 0.218827 12.9724C0.268253 12.9961 0.32204 13.0084 0.37649 13.0085H3.08518L3.76528 8.53576L4.49683 3.73285Z" fill="#203881"/>
</svg>
