<svg width="16" height="16" fill="none" xmlns="http://www.w3.org/2000/svg"><path d="M6.667 8.767h-4a.567.567 0 00-.567.566v4c0 .15.06.295.166.401m4.4-4.967l-4.4 4.967m4.4-4.967a.567.567 0 01.567.566v4a.567.567 0 01-.566.567h-4a.567.567 0 01-.401-.166m4.4-4.967l-4.4 4.967M6 12.767h.1V9.9H3.233v2.867H6zM12.667 6.1h.1V3.233H9.9V6.1h2.767zm-.767 4.567v.1h1.433a.567.567 0 110 1.133H11.9v1.433a.566.566 0 11-1.133 0V11.9H9.333a.567.567 0 110-1.133h1.434V9.333a.567.567 0 011.133 0v1.334zM6 6.1h.1V3.233H3.233V6.1H6zm3.333-4h4a.567.567 0 01.567.567v4a.567.567 0 01-.567.566h-4a.567.567 0 01-.566-.566v-4a.567.567 0 01.566-.567zm-6.666 0h4a.567.567 0 01.566.567v4a.567.567 0 01-.566.566h-4a.567.567 0 01-.567-.566v-4a.567.567 0 01.567-.567z" fill="#0B0B0C" stroke="#fff" stroke-width=".2"/></svg>