<svg width="64" height="58" fill="none" xmlns="http://www.w3.org/2000/svg"><g clip-path="url(#clip0)"><path d="M46.186 31.28l-21.96 11.433 1.685 3.148 22.542-11.755c1.425-.77 2.008-2.569 1.231-3.982l-9.198-17.15-3.174 1.67 8.874 16.636z" fill="url(#paint0_linear)"/><path d="M18.396 45.796L3.822 18.241 31.546 3.79l4.081 7.643 3.174-1.67-4.34-8.157c-.777-1.413-2.59-1.991-4.016-1.22L1.619 15.415c-1.425.77-2.008 2.569-1.23 3.982L15.545 47.98c.778 1.413 2.591 1.991 4.016 1.22l3.174-1.67-1.684-3.147-2.656 1.413z" fill="url(#paint1_linear)"/><path d="M63.677 38.667L48.454 10.02c-.777-1.413-2.591-1.991-4.016-1.22l-3.174 1.67 1.684 3.147 2.591-1.349 14.575 27.49-27.66 14.452-4.016-7.643-3.174 1.67 4.34 8.221c.777 1.414 2.59 1.992 4.016 1.22L62.51 42.65c1.361-.77 1.944-2.57 1.167-3.982z" fill="#0FAFE9" fill-opacity=".1"/><path d="M63.235 38.901h0l.004.007c.636 1.156.164 2.655-.967 3.302L33.389 57.235h0l-.007.004c-1.171.634-2.686.163-3.338-1.018l-4.104-7.775 2.288-1.203 3.783 7.2.232.442.442-.231 27.66-14.452.446-.233-.235-.445-14.575-27.49-.233-.439-.44.23-2.152 1.12-1.214-2.267 2.729-1.436h0l.005-.003c1.171-.633 2.686-.162 3.338 1.019l.002.003 15.22 28.64z" stroke="#0FAFE9" stroke-opacity=".1"/><path d="M35.952 16.828l-1.36-2.569-18.268 9.506c-1.166.642-1.62 2.056-1.036 3.212l7.45 14.002 2.59-1.349-7.19-13.488 17.814-9.314z" fill="#0FAFE9" fill-opacity=".1"/><path d="M24.227 42.713l-3.239 1.67 1.684 3.212 3.24-1.67-1.685-3.212z" fill="url(#paint2_linear)"/><path d="M37.312 14.645l3.174-1.67-1.684-3.212-3.174 1.67 1.684 3.212z" fill="url(#paint3_linear)"/></g><defs><linearGradient id="paint0_linear" x1="11.635" y1="40.676" x2="45.65" y2="22.648" gradientUnits="userSpaceOnUse"><stop stop-color="#0FAFE9"/><stop offset=".267" stop-color="#14B0E9"/><stop offset=".586" stop-color="#23B2E8"/><stop offset=".931" stop-color="#3BB6E6"/><stop offset=".984" stop-color="#3FB7E6"/></linearGradient><linearGradient id="paint1_linear" x1="7.928" y1="33.683" x2="41.943" y2="15.655" gradientUnits="userSpaceOnUse"><stop stop-color="#0FAFE9"/><stop offset=".267" stop-color="#14B0E9"/><stop offset=".586" stop-color="#23B2E8"/><stop offset=".931" stop-color="#3BB6E6"/><stop offset=".984" stop-color="#3FB7E6"/></linearGradient><linearGradient id="paint2_linear" x1="16.058" y1="49.021" x2="50.073" y2="30.993" gradientUnits="userSpaceOnUse"><stop stop-color="#0FAFE9"/><stop offset=".267" stop-color="#14B0E9"/><stop offset=".586" stop-color="#23B2E8"/><stop offset=".931" stop-color="#3BB6E6"/><stop offset=".984" stop-color="#3FB7E6"/></linearGradient><linearGradient id="paint3_linear" x1="5.529" y1="29.156" x2="39.544" y2="11.128" gradientUnits="userSpaceOnUse"><stop stop-color="#3C4394"/><stop offset=".16" stop-color="#3C4898"/><stop offset=".352" stop-color="#3D57A2"/><stop offset=".56" stop-color="#3D6FB3"/><stop offset=".777" stop-color="#3E90CB"/><stop offset=".984" stop-color="#3FB7E6"/></linearGradient><clipPath id="clip0"><path fill="#fff" d="M0 0h64v58H0z"/></clipPath></defs></svg>