<svg width="16" height="16" viewBox="0 0 16 16" fill="none" xmlns="http://www.w3.org/2000/svg">
<g clip-path="url(#clip0_1312_1079)">
<path d="M7.33301 2.66666H2.66634C2.31272 2.66666 1.97358 2.80713 1.72353 3.05718C1.47348 3.30723 1.33301 3.64637 1.33301 3.99999V13.3333C1.33301 13.6869 1.47348 14.0261 1.72353 14.2761C1.97358 14.5262 2.31272 14.6667 2.66634 14.6667H11.9997C12.3533 14.6667 12.6924 14.5262 12.9425 14.2761C13.1925 14.0261 13.333 13.6869 13.333 13.3333V8.66666" stroke="#0B0B0C" stroke-linecap="round" stroke-linejoin="round"/>
<path d="M12.333 1.66669C12.5982 1.40147 12.9579 1.25247 13.333 1.25247C13.7081 1.25247 14.0678 1.40147 14.333 1.66669C14.5982 1.9319 14.7472 2.29161 14.7472 2.66669C14.7472 3.04176 14.5982 3.40147 14.333 3.66669L7.99967 10L5.33301 10.6667L5.99967 8.00002L12.333 1.66669Z" stroke="#0B0B0C" stroke-linecap="round" stroke-linejoin="round"/>
</g>
<defs>
<clipPath id="clip0_1312_1079">
<rect width="16" height="16" fill="white"/>
</clipPath>
</defs>
</svg>
