<svg width="13" height="11" viewBox="0 0 13 11" fill="none" xmlns="http://www.w3.org/2000/svg">
<path d="M11.0612 2.1129C10.8045 1.87869 10.4998 1.6929 10.1643 1.56615C9.82889 1.43939 9.46935 1.37415 9.10626 1.37415C8.74317 1.37415 8.38363 1.43939 8.0482 1.56615C7.71276 1.6929 7.40799 1.87869 7.15131 2.1129L6.6186 2.59873L6.08588 2.1129C5.5674 1.64004 4.86418 1.37439 4.13093 1.37439C3.39768 1.37439 2.69446 1.64004 2.17598 2.1129C1.65749 2.58576 1.36621 3.22709 1.36621 3.89582C1.36621 4.56454 1.65749 5.20587 2.17598 5.67873L2.70869 6.16457L6.6186 9.7304L10.5285 6.16457L11.0612 5.67873C11.318 5.44464 11.5217 5.16669 11.6607 4.86077C11.7997 4.55485 11.8712 4.22696 11.8712 3.89582C11.8712 3.56468 11.7997 3.23678 11.6607 2.93086C11.5217 2.62494 11.318 2.347 11.0612 2.1129Z" fill="#0FAFE9" stroke="#0FAFE9" stroke-linecap="round" stroke-linejoin="round"/>
</svg>
