<svg width="13" height="11" fill="none" xmlns="http://www.w3.org/2000/svg"><g clip-path="url(#clip0)"><path d="M11.061 2.113a2.795 2.795 0 00-.897-.547 2.997 2.997 0 00-2.116 0c-.335.127-.64.313-.897.547l-.532.486-.533-.486a2.906 2.906 0 00-1.955-.739c-.733 0-1.437.266-1.955.739a2.414 2.414 0 00-.81 1.783c0 .669.291 1.31.81 1.783l.533.486 3.91 3.565 3.91-3.565.532-.486a2.52 2.52 0 00.6-.818 2.33 2.33 0 000-1.93 2.52 2.52 0 00-.6-.818v0z" stroke="#0FAFE9" stroke-linecap="round" stroke-linejoin="round"/></g><defs><clipPath id="clip0"><path fill="#fff" transform="translate(.588)" d="M0 0h12.061v11H0z"/></clipPath></defs></svg>