<svg width="135" height="48" fill="none" xmlns="http://www.w3.org/2000/svg"><path d="M12.121 20.784c-2.198 0-4.026-1.787-4.026-3.994 0-2.18 1.801-3.994 4.026-3.994 2.199 0 4.027 1.787 4.027 3.994 0 2.207-1.801 3.994-4.027 3.994zm29.669-9.249C41.79 5.203 36.547 0 30.163 0c-6.411 0-11.63 5.203-11.63 11.535v16.869s23.259-2.575 23.259-16.87zM0 33.767c0 4.414 3.63 8.04 8.08 8.04s8.08-3.6 8.08-8.014V22.048c.026 0-16.16 1.787-16.16 11.719zm8.08 2.128a2.117 2.117 0 01-2.12-2.102c0-1.156.954-2.102 2.12-2.102 1.165 0 2.119.946 2.119 2.102.026 1.156-.927 2.102-2.12 2.102zm43.05-3.024c0 1.668-.367 3.151-1.1 4.45-.715 1.283-1.757 2.285-3.124 3.006-1.351.722-2.946 1.083-4.785 1.083h-6.519V24.405h6.519c1.855 0 3.458.353 4.81 1.058 1.35.706 2.384 1.7 3.1 2.983.732 1.282 1.098 2.758 1.098 4.425zm-9.375 4.859c1.627 0 2.889-.425 3.784-1.275.911-.85 1.367-2.044 1.367-3.584s-.456-2.734-1.367-3.584c-.895-.85-2.157-1.274-3.784-1.274h-1.978v9.717h1.978zm25.221-9.741v13.42h-4.2V38.98a4.463 4.463 0 01-1.757 1.877c-.765.465-1.66.697-2.686.697-1.562 0-2.807-.513-3.735-1.54-.911-1.026-1.367-2.437-1.367-4.233V27.99h4.15v7.287c0 .914.236 1.628.708 2.141.489.497 1.14.746 1.953.746.847 0 1.514-.265 2.002-.794.488-.53.733-1.283.733-2.261v-7.12h4.199zm7.972-.169c1.041 0 1.936.233 2.685.698a4.213 4.213 0 011.66 1.9v-2.43h4.15v13.35c0 1.25-.244 2.373-.732 3.367-.488 1.01-1.237 1.812-2.246 2.405-1.01.593-2.262.89-3.76.89-2.05 0-3.694-.481-4.931-1.443-1.22-.946-1.953-2.237-2.197-3.873h4.126c.13.546.423.97.879 1.275.471.305 1.082.457 1.83.457.863 0 1.555-.248 2.075-.745.538-.481.806-1.26.806-2.334V38.98a4.212 4.212 0 01-1.66 1.9c-.749.465-1.644.698-2.685.698-1.123 0-2.132-.273-3.027-.818-.88-.56-1.58-1.363-2.1-2.405-.505-1.042-.757-2.26-.757-3.656 0-1.41.252-2.63.757-3.656.52-1.042 1.22-1.836 2.1-2.38.895-.562 1.904-.843 3.027-.843zm1.342 3.608c-.895 0-1.619.289-2.172.866-.537.577-.806 1.379-.806 2.405 0 1.026.269 1.828.806 2.405.553.578 1.277.866 2.172.866.88 0 1.595-.296 2.149-.89.57-.593.854-1.387.854-2.38 0-1.011-.285-1.805-.854-2.382-.554-.593-1.27-.89-2.149-.89zm9.556-7.216c0-.625.228-1.138.684-1.539.456-.417 1.058-.625 1.807-.625.748 0 1.35.208 1.806.625.456.401.684.914.684 1.54 0 .609-.228 1.122-.684 1.539-.456.4-1.058.601-1.806.601-.75 0-1.351-.2-1.807-.601a2.005 2.005 0 01-.684-1.54zm4.566 3.777v13.42h-4.175V27.99h4.175zm6.976 10.27h5.566v3.15h-9.74V24.406h4.174V38.26zm12.578-10.439c1.042 0 1.937.233 2.686.698a4.21 4.21 0 011.66 1.9v-2.43h4.15V41.41h-4.15v-2.43a4.209 4.209 0 01-1.66 1.9c-.749.465-1.644.698-2.686.698-1.123 0-2.132-.273-3.027-.818-.879-.56-1.578-1.363-2.099-2.405-.505-1.042-.757-2.26-.757-3.656 0-1.41.252-2.63.757-3.656.521-1.042 1.22-1.836 2.099-2.38.895-.562 1.904-.843 3.027-.843zm1.343 3.608c-.895 0-1.619.289-2.173.866-.537.577-.805 1.379-.805 2.405 0 1.026.268 1.828.805 2.405.554.578 1.278.866 2.173.866.879 0 1.595-.296 2.149-.89.569-.593.854-1.387.854-2.38 0-1.011-.285-1.805-.854-2.382-.554-.593-1.27-.89-2.149-.89zm18.589-3.584c1.562 0 2.799.513 3.711 1.54.927 1.026 1.391 2.437 1.391 4.233v7.793h-4.174v-7.312c0-.898-.244-1.596-.733-2.093-.472-.513-1.106-.77-1.904-.77-.846 0-1.522.265-2.026.794-.488.53-.733 1.283-.733 2.261v7.12h-4.174V27.989h4.174v2.453a4.478 4.478 0 011.734-1.9c.781-.465 1.692-.698 2.734-.698z" fill="#0FAFE9"/></svg>