<svg width="50" height="60" viewBox="0 0 50 60" fill="none" xmlns="http://www.w3.org/2000/svg">
<path d="M33.3337 5C31.6761 5 30.0863 5.79018 28.9142 7.1967C27.7421 8.60322 27.0837 10.5109 27.0837 12.5V47.5C27.0837 49.4891 27.7421 51.3968 28.9142 52.8033C30.0863 54.2098 31.6761 55 33.3337 55C34.9913 55 36.581 54.2098 37.7531 52.8033C38.9252 51.3968 39.5837 49.4891 39.5837 47.5V12.5C39.5837 10.5109 38.9252 8.60322 37.7531 7.1967C36.581 5.79018 34.9913 5 33.3337 5ZM35.417 47.5C35.417 48.163 35.1975 48.7989 34.8068 49.2678C34.4161 49.7366 33.8862 50 33.3337 50C32.7811 50 32.2512 49.7366 31.8605 49.2678C31.4698 48.7989 31.2503 48.163 31.2503 47.5V12.5C31.2503 11.837 31.4698 11.2011 31.8605 10.7322C32.2512 10.2634 32.7811 10 33.3337 10C33.8862 10 34.4161 10.2634 34.8068 10.7322C35.1975 11.2011 35.417 11.837 35.417 12.5V47.5ZM16.667 5C15.0094 5 13.4197 5.79018 12.2476 7.1967C11.0755 8.60322 10.417 10.5109 10.417 12.5V47.5C10.417 49.4891 11.0755 51.3968 12.2476 52.8033C13.4197 54.2098 15.0094 55 16.667 55C18.3246 55 19.9143 54.2098 21.0864 52.8033C22.2585 51.3968 22.917 49.4891 22.917 47.5V12.5C22.917 10.5109 22.2585 8.60322 21.0864 7.1967C19.9143 5.79018 18.3246 5 16.667 5ZM18.7503 47.5C18.7503 48.163 18.5308 48.7989 18.1401 49.2678C17.7494 49.7366 17.2195 50 16.667 50C16.1145 50 15.5846 49.7366 15.1939 49.2678C14.8032 48.7989 14.5837 48.163 14.5837 47.5V12.5C14.5837 11.837 14.8032 11.2011 15.1939 10.7322C15.5846 10.2634 16.1145 10 16.667 10C17.2195 10 17.7494 10.2634 18.1401 10.7322C18.5308 11.2011 18.7503 11.837 18.7503 12.5V47.5Z" fill="#EBEBEB"/>
</svg>
