<svg width="76" height="76" viewBox="0 0 76 76" fill="none" xmlns="http://www.w3.org/2000/svg">
<path d="M19 6.33337L9.5 19V63.3334C9.5 65.0131 10.1673 66.624 11.355 67.8117C12.5427 68.9995 14.1536 69.6667 15.8333 69.6667H60.1667C61.8464 69.6667 63.4573 68.9995 64.645 67.8117C65.8327 66.624 66.5 65.0131 66.5 63.3334V19L57 6.33337H19Z" stroke="#0FAFE9" stroke-width="4" stroke-linecap="round" stroke-linejoin="round"/>
<path d="M9.5 19H66.5" stroke="#0FAFE9" stroke-width="4" stroke-linecap="round" stroke-linejoin="round"/>
<path d="M50.6668 31.6666C50.6668 35.026 49.3323 38.2479 46.9568 40.6233C44.5814 42.9988 41.3596 44.3333 38.0002 44.3333C34.6408 44.3333 31.4189 42.9988 29.0435 40.6233C26.668 38.2479 25.3335 35.026 25.3335 31.6666" stroke="#0FAFE9" stroke-width="4" stroke-linecap="round" stroke-linejoin="round"/>
</svg>
