<svg width="16" height="16" fill="none" xmlns="http://www.w3.org/2000/svg"><path d="M8 0C3.59 0 0 3.587 0 8c0 4.41 3.59 8 8 8s8-3.59 8-8c0-4.412-3.59-8-8-8zM.806 8c0-1.04.222-2.031.622-2.925l3.431 9.4A7.198 7.198 0 01.806 8zM8 15.194a7.142 7.142 0 01-2.031-.294l2.156-6.272 2.213 6.06a.734.734 0 00.05.1A7.277 7.277 0 018 15.194zM8.99 4.63c.432-.022.822-.069.822-.069.388-.046.341-.615-.046-.593 0 0-1.166.09-1.916.09-.706 0-1.894-.09-1.894-.09-.387-.022-.431.572-.044.594 0 0 .37.046.754.068l1.118 3.072-1.575 4.719-2.615-7.794c.431-.022.822-.069.822-.069.387-.046.34-.615-.047-.593 0 0-1.166.09-1.916.09-.134 0-.294-.003-.465-.01a7.201 7.201 0 0110.871-1.352.947.947 0 00-.093-.006c-.707 0-1.207.615-1.207 1.278 0 .593.341 1.093.707 1.687.275.478.593 1.094.593 1.985 0 .615-.234 1.328-.55 2.325l-.715 2.396L8.99 4.631zm5.322-.081a7.15 7.15 0 01.882 3.453 7.18 7.18 0 01-3.578 6.216l2.197-6.356c.409-1.026.55-1.844.55-2.579 0-.262-.016-.506-.05-.734z" fill="#0B0B0C"/></svg>