<svg width="122" height="25" fill="none" xmlns="http://www.w3.org/2000/svg"><path d="M62.587 11.668c-1.002 0-1.724.328-2.457.663v7.576c.702.067 1.104.067 1.77.067 2.405 0 2.735-1.102 2.735-2.64v-3.618c0-1.136-.377-2.048-2.048-2.048zm-15.976-.414c-1.669 0-2.05.917-2.05 2.051v.638h4.098v-.638c0-1.134-.38-2.05-2.048-2.05zM15.663 19.14c0 .898.423 1.364 1.358 1.364 1.003 0 1.597-.327 2.329-.663v-1.797h-2.193c-1.038 0-1.494.193-1.494 1.096zm62.465-7.472c-1.672 0-2.251.912-2.251 2.048v4.145c0 1.14.579 2.054 2.25 2.054 1.668 0 2.252-.915 2.252-2.054v-4.145c0-1.136-.584-2.048-2.251-2.048zM7.47 23.788H2.555V11.893H.1V7.794h2.456V5.332C2.556 1.988 3.942 0 7.88 0h3.28v4.1H9.11c-1.534 0-1.635.573-1.635 1.642L7.47 7.794h3.713l-.434 4.098h-3.28v11.896zm16.795.031H20.17l-.177-1.036a9.388 9.388 0 01-4.64 1.204c-3.004 0-4.603-2.007-4.603-4.782 0-3.274 1.866-4.442 5.204-4.442h3.397v-.708c0-1.672-.192-2.162-2.762-2.162h-4.202l.41-4.099h4.594c5.639 0 6.875 1.782 6.875 6.294v9.731zm13.928-11.625c-2.548-.438-3.28-.534-4.507-.534-2.202 0-2.868.486-2.868 2.357v3.539c0 1.87.666 2.359 2.868 2.359 1.227 0 1.959-.098 4.508-.537v3.998c-2.233.5-3.688.632-4.917.632-5.276 0-7.373-2.774-7.373-6.783v-2.87c0-4.013 2.097-6.792 7.373-6.792 1.23 0 2.684.132 4.916.635v3.995zm15.38 5.031H44.56v.33c0 1.871.666 2.36 2.868 2.36 1.98 0 3.188-.098 5.733-.537v3.998c-2.454.5-3.733.632-6.14.632-5.277 0-7.375-2.774-7.375-6.783v-3.283c0-3.507 1.557-6.38 6.964-6.38s6.962 2.84 6.962 6.38v3.283zm15.975.076c0 3.874-1.107 6.7-7.815 6.7-2.422 0-3.843-.213-6.516-.624V1.23L60.13.41v7.747c1.061-.394 2.435-.595 3.686-.595 4.913 0 5.732 2.203 5.732 5.743V17.3zm15.749.085c0 3.341-1.38 6.583-7.153 6.583-5.776 0-7.181-3.242-7.181-6.584V14.16c0-3.344 1.406-6.586 7.181-6.586 5.773 0 7.153 3.242 7.153 6.586v3.226zm15.738 0c0 3.341-1.382 6.583-7.154 6.583-5.775 0-7.18-3.242-7.18-6.584V14.16c0-3.344 1.405-6.586 7.18-6.586 5.772 0 7.154 3.242 7.154 6.586v3.226zm16.15 6.402h-5.325l-4.504-7.518v7.518h-4.914V1.231l4.914-.82v14.522l4.504-7.139h5.325l-4.917 7.79 4.917 8.204zm-23.32-12.12c-1.67 0-2.249.912-2.249 2.048v4.145c0 1.14.58 2.054 2.249 2.054 1.666 0 2.256-.915 2.256-2.054v-4.145c0-1.136-.59-2.048-2.256-2.048zm26.125 9.315c.828 0 1.487.674 1.487 1.517 0 .856-.66 1.523-1.493 1.523a1.504 1.504 0 01-1.502-1.523c0-.843.673-1.517 1.502-1.517h.006zm-.006.235c-.667 0-1.212.574-1.212 1.282 0 .72.546 1.287 1.218 1.287.673.007 1.211-.566 1.211-1.28 0-.714-.538-1.289-1.211-1.289h-.006zm-.283 2.165h-.269V21.69c.141-.02.276-.04.478-.04.257 0 .424.055.527.128.099.075.153.189.153.35 0 .224-.148.358-.329.412v.013c.148.028.248.162.283.41.039.264.08.364.106.42h-.282c-.04-.055-.081-.21-.115-.433-.039-.215-.148-.296-.364-.296h-.187v.73h-.001zm0-.937h.196c.221 0 .409-.081.409-.291 0-.148-.106-.296-.409-.296-.088 0-.149.007-.196.013v.574z" fill="#B9B9B9"/></svg>