<svg width="92" height="24" fill="none" xmlns="http://www.w3.org/2000/svg"><path d="M51.954 0v7.332c.6-.2 1.125-.448 1.7-.6a6.175 6.175 0 017.895 4.767 9.55 9.55 0 01-1.323 8.167 7.807 7.807 0 01-5.943 3.176 21.325 21.325 0 01-6.662-.6c-.168-.036-.371-.423-.371-.653 0-4.447.066-8.9.084-13.352 0-1.295-.042-2.589-.1-3.884-.072-1.609-.317-1.894-1.843-2.42-.132-.042-.317-.236-.3-.333a.531.531 0 01.31-.387C47.592.8 49.74.411 51.955 0zm-.06 21.579c2.1.375 3.19-.2 4.052-2a11.72 11.72 0 001.04-4.8 9.506 9.506 0 00-.91-4.8 2.948 2.948 0 00-3.435-1.7.81.81 0 00-.754.616.83.83 0 00-.014.346c.042 2.692 0 5.384 0 8.076l.02 4.262zM.063 1.332A4.46 4.46 0 01.009.866C.013.734.027.603.05.473h18.225c0 .418.054.835.06 1.253 0 1.352.016 2.702.048 4.049 0 .932 0 .932-.964 1.071-.431-.866-.808-1.749-1.287-2.572a4.101 4.101 0 00-3.34-2.209c-1.42-.091-2.85 0-4.423 0v8.734c3.214.145 4.094.291 4.974-2.984h.862v7.39h-.85c-.18-.514-.323-1.047-.545-1.549a2.2 2.2 0 00-2.176-1.465c-.772 0-1.544-.067-2.394-.109 0 1.283-.03 2.494 0 3.7.017 1.043.095 2.083.233 3.117.275 1.943.652 2.294 2.532 2.621.694.121.694.121.64.908H.08c-.18-.539-.084-.847.55-.926 1.629-.188 2.347-.551 2.425-2.96.156-4.7.054-9.405.036-14.114a4.892 4.892 0 00-.2-1.21A2.085 2.085 0 00.917 1.469a7.443 7.443 0 01-.854-.137zm32.121 13.235c-.036 3.244-1.107 5.985-4.19 7.446a8.26 8.26 0 01-8.8-.6 7.179 7.179 0 01-2.83-5.53 8.248 8.248 0 012.208-7.1c2.657-2.6 5.9-2.921 9.187-1.658 3.106 1.161 4.238 3.8 4.43 6.937.007.152-.005.331-.005.505zm-11.115-.209h.114c-.013.654.025 1.309.114 1.957.233 1.355.56 2.691.982 4a2.107 2.107 0 002.191 1.526 2.262 2.262 0 002.095-1.8 18.33 18.33 0 00.658-3.388c.316-2.405.053-4.85-.766-7.134a2.643 2.643 0 00-2.466-2.005c-1.047 0-1.92.808-2.25 2.3-.329 1.492-.45 3.029-.67 4.543l-.002.001zm47.332-.395c0 2.34.4 4.447 2.394 5.74a5.727 5.727 0 006.584-.168c.64.323.347.67 0 .988a8.033 8.033 0 01-7.817 2.167 7.766 7.766 0 01-5.913-8.834c.4-3.208 1.867-5.656 5-6.853a8 8 0 014.6-.329c2.538.545 4.256 2.568 4.663 5.477.084.6.114 1.2.18 1.843l-9.69-.031zm0-1.257h5c-.227-1.317-.377-2.532-.652-3.711a1.689 1.689 0 00-1.436-1.46 1.8 1.8 0 00-1.724 1.018 8.326 8.326 0 00-1.185 4.154l-.003-.001zm21.47-1.177c-.419-.8-.766-1.586-1.2-2.3a3.231 3.231 0 00-2.993-1.586 2.113 2.113 0 00-1.963 1.4 1.94 1.94 0 00.6 2.394 22.158 22.158 0 002.694 1.472c.652.329 1.353.557 1.987.91a4.519 4.519 0 01.724 7.524 6.656 6.656 0 01-3.872 1.514 16.27 16.27 0 01-6.153-.694.653.653 0 01-.55-.742c0-1.155 0-2.316-.067-3.471 0-.545.21-.706.628-.73a29.37 29.37 0 001.472 2.574 3.645 3.645 0 003.3 1.628 2.395 2.395 0 002.394-1.8 2.1 2.1 0 00-1.2-2.568c-.7-.389-1.466-.658-2.2-.976-.55-.239-1.113-.461-1.658-.712a4.433 4.433 0 01-.658-7.524 6.045 6.045 0 013.866-1.313c1.626.113 3.244.314 4.848.6.431.054.6.311.6.784-.03.958 0 1.915.048 2.867.023.471-.109.749-.647.749z" fill="#B9B9B9"/><path d="M39.412 6.481v3.322c2.454-3.244 4.459-4.136 6.488-2.849l-1.646 4.19a4.79 4.79 0 00-3.765-.6c-.946.257-1.155.5-1.15 1.466 0 2.394.049 4.728.109 7.093.054 2.059.6 2.586 2.334 2.538.11.013.221.035.329.066 0 .12.054.233.06.353.007.133.007.267 0 .4h-9.576c-.168-.5-.132-.814.527-.9.97-.114 1.49-.551 1.5-1.484.056-3.344.056-6.688 0-10.031 0-.952-.527-1.317-1.5-1.484-.215-.042-.4-.257-.6-.389.162-.144.31-.365.5-.407 2.099-.452 4.212-.859 6.39-1.284z" fill="#B9B9B9"/></svg>