<svg width="21" height="18" fill="none" xmlns="http://www.w3.org/2000/svg"><g clip-path="url(#clip0)" stroke="#0FAFE9" stroke-width="1.5" stroke-linecap="round" stroke-linejoin="round"><path d="M7.905 16.5c.481 0 .872-.336.872-.75s-.39-.75-.872-.75-.873.336-.873.75.39.75.873.75zm9.595 0c.482 0 .873-.336.873-.75S17.982 15 17.5 15s-.872.336-.872.75.39.75.872.75zM.926.75h3.49l2.337 10.043c.08.345.298.655.617.876.32.22.718.338 1.128.331h8.479c.41.007.808-.11 1.127-.331.32-.221.538-.531.617-.877L20.117 4.5H5.287"/></g><defs><clipPath id="clip0"><path fill="#fff" transform="translate(.054)" d="M0 0h20.936v18H0z"/></clipPath></defs></svg>