<svg width="22" height="20" fill="none" xmlns="http://www.w3.org/2000/svg"><path d="M11.104 18.333c4.794 0 8.681-3.73 8.681-8.333 0-4.602-3.887-8.333-8.681-8.333-4.795 0-8.682 3.73-8.682 8.333 0 4.602 3.887 8.333 8.682 8.333zm0-4.166h.008" stroke="#0FAFE9" stroke-linecap="round" stroke-linejoin="round"/><path d="M8.577 7.5a2.526 2.526 0 011.137-1.326 2.696 2.696 0 011.76-.308c.607.1 1.156.402 1.553.854a2.44 2.44 0 01.612 1.613c0 1.667-2.605 2.5-2.605 2.5" stroke="#0FAFE9" stroke-linecap="round" stroke-linejoin="round"/></svg>