<svg width="119" height="31" fill="none" xmlns="http://www.w3.org/2000/svg"><path d="M0 4.428h4.667v16.917h8.5v4.25H0V4.428zm15.25 6.833h4.417v14.334H15.25V11.26zm2.25-7.166a2.596 2.596 0 012.583 2.583A2.596 2.596 0 0117.5 9.261a2.596 2.596 0 01-2.583-2.583c0-1.417 1.083-2.583 2.583-2.583zm20.75.333h4.5v12.667l5-5.834h5.5l-5.833 6.584 5.666 7.75H47.5l-4.75-7.084v7.084h-4.5V4.428zm-16.083 6.833h4.25v1.917h.083c.583-1.167 2.083-2.333 4.25-2.333 4.5 0 5.333 3 5.333 6.833v7.833h-4.416v-7c0-1.666 0-3.833-2.334-3.833-2.333 0-2.666 1.833-2.666 3.667v7.083H22.25V11.261h-.083z" fill="#0E76A8"/><path d="M62.583 16.762c0-1.5-1.166-2.75-2.75-2.75-1.916 0-3 1.333-3.166 2.75h5.916zm3.75 6.333c-1.416 1.833-3.75 2.833-6.083 2.833-4.417 0-8-3-8-7.583s3.583-7.583 8-7.583c4.167 0 6.75 3 6.75 7.583v1.417H56.667c.333 1.666 1.666 2.75 3.333 2.75 1.417 0 2.417-.75 3.167-1.75l3.166 2.333zm9.917-8.417c-2.25 0-3.583 1.5-3.583 3.667S74 22.012 76.25 22.012s3.583-1.5 3.583-3.667-1.333-3.667-3.583-3.667zm7.667 10.917h-4.084v-1.917h-.083c-.667 1-2.417 2.25-4.417 2.25-4.25 0-7.083-3.083-7.083-7.416 0-4 2.5-7.667 6.583-7.667 1.834 0 3.584.5 4.584 1.917h.083V4.428h4.417v21.167zM116.166.011H90.583c-1.25 0-2.25 1-2.25 2.167v25.667c0 1.167 1 2.167 2.25 2.167h25.583c1.25 0 2.25-1 2.25-2.167V2.178c0-1.167-1-2.167-2.25-2.167z" fill="#0E76A8"/><path d="M92.833 11.262h4.417v14.333h-4.417V11.262zm2.25-7.084a2.596 2.596 0 012.584 2.584 2.596 2.596 0 01-2.584 2.583A2.596 2.596 0 0192.5 6.762c0-1.5 1.167-2.584 2.583-2.584zm5 7.084h4.25v1.916h.084c.583-1.166 2.083-2.333 4.25-2.333 4.5 0 5.333 3 5.333 6.833v7.834h-4.417v-7c0-1.667 0-3.834-2.333-3.834s-2.667 1.834-2.667 3.667v7.083h-4.416V11.262h-.084z" fill="#fff"/></svg>