<svg width="76" height="76" viewBox="0 0 76 76" fill="none" xmlns="http://www.w3.org/2000/svg">
<path d="M66.5 31.6666C66.5 53.8333 38 72.8333 38 72.8333C38 72.8333 9.5 53.8333 9.5 31.6666C9.5 24.108 12.5027 16.8589 17.8475 11.5141C23.1922 6.1693 30.4413 3.16663 38 3.16663C45.5587 3.16663 52.8078 6.1693 58.1525 11.5141C63.4973 16.8589 66.5 24.108 66.5 31.6666Z" stroke="#0FAFE9" stroke-width="4" stroke-linecap="round" stroke-linejoin="round"/>
<path d="M38 41.1666C43.2467 41.1666 47.5 36.9133 47.5 31.6666C47.5 26.4199 43.2467 22.1666 38 22.1666C32.7533 22.1666 28.5 26.4199 28.5 31.6666C28.5 36.9133 32.7533 41.1666 38 41.1666Z" stroke="#0FAFE9" stroke-width="4" stroke-linecap="round" stroke-linejoin="round"/>
</svg>
