<svg width="78" height="25" viewBox="0 0 78 25" fill="none" xmlns="http://www.w3.org/2000/svg">
<path fill-rule="evenodd" clip-rule="evenodd" d="M0.577148 1.28221H9.93861L10.9649 1.325L11.9479 1.41059L12.8886 1.62416L13.7865 1.83814L14.5984 2.18009L15.3678 2.52204L16.0945 2.94958L16.7784 3.41992L17.3772 3.93305L17.9755 4.48856L18.4886 5.08729L18.9585 5.72839L19.3433 6.41229L19.728 7.0966L20.0272 7.8233L20.284 8.55L33.5772 0L38.4073 3.24873L28.0628 9.91698L29.7298 11.0284L40.1599 4.40297L44.6476 7.39493L34.3463 14.1916L36.0989 15.2602L46.5709 8.59197V1.28221H54.2654V15.8585H61.1049V22.6975H46.5709V15.6873L33.6196 24.0229L20.4111 15.089L20.1543 15.8585L19.898 16.5852L19.5132 17.3119L19.1285 18.039L18.6581 18.6801L18.145 19.3216L17.5895 19.92L16.9484 20.4327L16.3073 20.9458L15.5378 21.3733L14.7683 21.7581L13.9132 22.1L13.0153 22.3564L12.0751 22.5272L11.092 22.6556L10.0234 22.6984H0.577148V1.28221ZM7.9297 7.99325H9.93861L10.8365 8.07884L11.5632 8.3352L12.2043 8.71994L12.7598 9.23307L13.145 9.83139L13.4441 10.4729L13.6149 11.1996L13.6577 11.9263L13.6149 12.653L13.4441 13.3801L13.145 14.0212L12.7174 14.6199L12.2043 15.1326L11.5632 15.5178L10.7937 15.7742L9.93861 15.8598H7.9297V7.99325ZM63.0286 1.28221H70.7659V15.8585H77.5629V22.6975H63.029V1.28221H63.0286Z" fill="#B9B9B9"/>
</svg>
