<svg width="122" height="25" viewBox="0 0 122 25" fill="none" xmlns="http://www.w3.org/2000/svg">
<path d="M62.5873 11.6677C61.585 11.6677 60.8626 11.9963 60.13 12.3311V19.9073C60.8317 19.9742 61.2339 19.9742 61.8996 19.9742C64.3052 19.9742 64.635 18.8725 64.635 17.3344V13.7159C64.635 12.58 64.258 11.6677 62.5873 11.6677ZM46.6113 11.2542C44.9422 11.2542 44.5613 12.1705 44.5613 13.3053V13.9429H48.659V13.3053C48.659 12.1705 48.2781 11.2542 46.6113 11.2542ZM15.6627 19.1399C15.6627 20.0377 16.0863 20.5039 17.0211 20.5039C18.0238 20.5039 18.6177 20.177 19.3497 19.841V18.0439H17.157C16.1188 18.0439 15.6627 18.2372 15.6627 19.1399ZM78.1279 11.6677C76.456 11.6677 75.8768 12.58 75.8768 13.7159V17.8613C75.8768 19.0001 76.456 19.9152 78.1279 19.9152C79.7952 19.9152 80.3789 19.0001 80.3789 17.8613V13.7159C80.3783 12.58 79.7947 11.6677 78.1279 11.6677ZM7.46964 23.7881H2.55516V11.8929H0.0996094V7.79417H2.55572V5.33244C2.55572 1.98815 3.94164 0 7.88086 0H11.1605V4.09989H9.1106C7.57694 4.09989 7.47581 4.67291 7.47581 5.74198L7.46964 7.79361H11.183L10.7488 11.8924H7.46964V23.7881ZM24.2653 23.819H20.1693L19.9923 22.7831C18.1222 23.819 16.4531 23.987 15.352 23.987C12.3482 23.987 10.7493 21.9803 10.7493 19.2051C10.7493 15.931 12.615 14.7625 15.9526 14.7625H19.3497V14.0547C19.3497 12.3834 19.1581 11.8929 16.5879 11.8929H12.3858L12.7965 7.79417H17.3896C23.0288 7.79417 24.2653 9.57559 24.2653 14.0878V23.819ZM38.1935 12.1935C35.6447 11.7564 34.9127 11.6604 33.6863 11.6604C31.4836 11.6604 30.8179 12.1463 30.8179 14.017V17.5557C30.8179 19.4264 31.4836 19.9146 33.6863 19.9146C34.9127 19.9146 35.6447 19.8169 38.1935 19.3781V23.3763C35.961 23.8769 34.5065 24.0083 33.2774 24.0083C28.0011 24.0083 25.904 21.2337 25.904 17.2254V14.3541C25.904 10.3424 28.0011 7.56272 33.2774 7.56272C34.5065 7.56272 35.961 7.69474 38.1935 8.19753V12.1935ZM53.5729 17.2254H44.5608V17.5557C44.5608 19.4264 45.227 19.9146 47.4292 19.9146C49.409 19.9146 50.6174 19.8169 53.1617 19.3781V23.3763C50.7078 23.8769 49.4292 24.0083 47.0219 24.0083C41.7451 24.0083 39.6469 21.2337 39.6469 17.2254V13.9423C39.6469 10.4351 41.2036 7.56272 46.6107 7.56272C52.0179 7.56272 53.5729 10.402 53.5729 13.9423V17.2254ZM69.5483 17.3012C69.5483 21.1753 68.441 24.001 61.7333 24.001C59.3109 24.001 57.8902 23.7881 55.2167 23.3769V1.23143L60.1295 0.411788V8.15821C61.1912 7.76384 62.5653 7.56328 63.8159 7.56328C68.7292 7.56328 69.5477 9.76603 69.5477 13.3058V17.3012H69.5483ZM85.2968 17.3855C85.2968 20.7275 83.917 23.969 78.1441 23.969C72.3685 23.969 70.9629 20.7275 70.9629 17.3855V14.1586C70.9629 10.8149 72.3685 7.57283 78.1441 7.57283C83.917 7.57283 85.2968 10.8149 85.2968 14.1586V17.3855ZM101.035 17.3855C101.035 20.7275 99.6531 23.969 93.8814 23.969C88.1057 23.969 86.7001 20.7275 86.7001 17.3855V14.1586C86.7001 10.8149 88.1057 7.57283 93.8814 7.57283C99.6531 7.57283 101.035 10.8149 101.035 14.1586V17.3855ZM117.185 23.7881H111.86L107.356 16.2698V23.7881H102.442V1.23087L107.356 0.411225V14.9327L111.86 7.79417H117.185L112.268 15.5844L117.185 23.7881ZM93.8645 11.6677C92.1954 11.6677 91.6162 12.58 91.6162 13.7159V17.8613C91.6162 19.0001 92.1954 19.9152 93.8645 19.9152C95.5313 19.9152 96.1212 19.0001 96.1212 17.8613V13.7159C96.1212 12.58 95.5313 11.6677 93.8645 11.6677ZM119.99 20.9826C120.818 20.9826 121.477 21.6573 121.477 22.5C121.477 23.3556 120.817 24.0229 119.984 24.0229C119.155 24.0229 118.482 23.3556 118.482 22.5C118.482 21.6573 119.155 20.9826 119.984 20.9826H119.99ZM119.984 21.2185C119.317 21.2185 118.772 21.7921 118.772 22.5C118.772 23.2207 119.318 23.787 119.99 23.787C120.663 23.7937 121.201 23.2207 121.201 22.5067C121.201 21.7927 120.663 21.2185 119.99 21.2185H119.984ZM119.701 23.3831H119.432V21.6899C119.573 21.6702 119.708 21.6505 119.91 21.6505C120.167 21.6505 120.334 21.7045 120.437 21.7781C120.536 21.8528 120.59 21.9668 120.59 22.1281C120.59 22.3516 120.442 22.4859 120.261 22.5404V22.5533C120.409 22.5809 120.509 22.7146 120.544 22.9634C120.583 23.2269 120.624 23.3275 120.65 23.3825H120.368C120.328 23.3275 120.287 23.173 120.253 22.9499C120.214 22.7348 120.105 22.6539 119.889 22.6539H119.702V23.3831H119.701ZM119.701 22.446H119.897C120.118 22.446 120.306 22.3646 120.306 22.155C120.306 22.0067 120.2 21.859 119.897 21.859C119.809 21.859 119.748 21.8657 119.701 21.8719V22.446Z" fill="#B9B9B9"/>
</svg>
