<svg width="92" height="24" viewBox="0 0 92 24" fill="none" xmlns="http://www.w3.org/2000/svg">
<path d="M51.9539 0V7.332C52.5539 7.132 53.0789 6.884 53.6539 6.732C54.486 6.47462 55.3632 6.39619 56.2278 6.50186C57.0923 6.60753 57.9248 6.8949 58.6704 7.34511C59.416 7.79532 60.058 8.39818 60.5541 9.11409C61.0502 9.83 61.3892 10.6428 61.5489 11.499C61.9548 12.8724 62.0466 14.3195 61.8175 15.7332C61.5885 17.1469 61.0446 18.4909 60.2259 19.666C59.5354 20.6056 58.6431 21.3785 57.6147 21.9281C56.5863 22.4777 55.4478 22.79 54.2829 22.842C52.0445 22.9937 49.7962 22.7912 47.6209 22.242C47.4529 22.206 47.2499 21.819 47.2499 21.589C47.2499 17.142 47.3159 12.689 47.3339 8.237C47.3339 6.942 47.2919 5.648 47.2339 4.353C47.1619 2.744 46.9169 2.459 45.3909 1.933C45.2589 1.891 45.0739 1.697 45.0909 1.6C45.1073 1.51503 45.1442 1.43536 45.1984 1.36792C45.2526 1.30047 45.3225 1.24729 45.4019 1.213C47.5909 0.800001 49.7399 0.411 51.9539 0ZM51.8939 21.579C53.9939 21.954 55.0839 21.379 55.9459 19.579C56.628 18.0705 56.9828 16.4346 56.9869 14.779C57.1069 13.127 56.7932 11.4724 56.0769 9.979C55.8009 9.33253 55.303 8.80595 54.673 8.49424C54.043 8.18252 53.3223 8.10619 52.6409 8.279C52.5248 8.28404 52.4112 8.31397 52.3077 8.36677C52.2042 8.41956 52.1132 8.49399 52.0409 8.585C51.9683 8.67636 51.9159 8.78202 51.8869 8.89507C51.858 9.00811 51.8532 9.12599 51.8729 9.241C51.9149 11.933 51.8729 14.625 51.8729 17.317L51.8939 21.579Z" fill="#B9B9B9"/>
<path d="M0.0625614 1.33202C0.036399 1.17774 0.0183742 1.02219 0.00856152 0.86602C0.012593 0.734146 0.0266332 0.60277 0.0505613 0.473022H18.2756C18.2756 0.891022 18.3296 1.30802 18.3356 1.72602C18.3356 3.07802 18.3516 4.42769 18.3836 5.77502C18.3836 6.70702 18.3836 6.70702 17.4196 6.84602C16.9886 5.98002 16.6116 5.09702 16.1326 4.27402C15.8111 3.65098 15.3353 3.12076 14.7506 2.73402C14.1658 2.34729 13.4917 2.11695 12.7926 2.06502C11.3736 1.97402 9.94356 2.06502 8.36956 2.06502V10.799C11.5836 10.944 12.4636 11.09 13.3436 7.81502H14.2056V15.205H13.3556C13.1756 14.691 13.0326 14.158 12.8106 13.656C12.6532 13.2106 12.3567 12.8276 11.9648 12.5637C11.5729 12.2999 11.1065 12.1692 10.6346 12.191C9.86256 12.191 9.09056 12.124 8.24056 12.082C8.24056 13.365 8.21056 14.576 8.24056 15.782C8.25819 16.8246 8.33599 17.8654 8.47356 18.899C8.74856 20.842 9.12556 21.193 11.0056 21.52C11.6996 21.641 11.6996 21.641 11.6456 22.428H0.0805611C-0.0994389 21.889 -0.00343829 21.581 0.631562 21.502C2.25956 21.314 2.97756 20.951 3.05556 18.542C3.21156 13.842 3.10956 9.13702 3.09156 4.42802C3.07592 4.01789 3.00872 3.61137 2.89156 3.21802C2.81447 2.74349 2.57576 2.31018 2.21585 1.99145C1.85593 1.67272 1.39693 1.48816 0.916562 1.46902C0.62948 1.43995 0.344332 1.3942 0.0625614 1.33202Z" fill="#B9B9B9"/>
<path d="M32.1844 14.567C32.1484 17.811 31.0774 20.552 27.9944 22.013C26.6208 22.7549 25.0651 23.0923 23.5076 22.9861C21.95 22.8799 20.4545 22.3345 19.1944 21.413C18.3385 20.7621 17.6398 19.9272 17.1498 18.97C16.6598 18.0129 16.391 16.9579 16.3634 15.883C16.15 14.6092 16.2387 13.3032 16.6224 12.0699C17.0061 10.8367 17.674 9.71087 18.5724 8.783C21.2294 6.183 24.4724 5.862 27.7594 7.125C30.8654 8.286 31.9974 10.925 32.1884 14.062C32.1964 14.214 32.1844 14.393 32.1844 14.567ZM21.0694 14.358H21.1834C21.1701 15.0123 21.2082 15.6667 21.2974 16.315C21.5298 17.6699 21.8579 19.0065 22.2794 20.315C22.4121 20.7833 22.7029 21.1912 23.1023 21.4694C23.5017 21.7475 23.9851 21.8789 24.4704 21.841C24.9693 21.8145 25.4455 21.6235 25.8245 21.2979C26.2035 20.9723 26.464 20.5303 26.5654 20.041C26.8908 18.9349 27.1111 17.8005 27.2234 16.653C27.5388 14.2479 27.2762 11.8023 26.4574 9.519C26.3195 8.96249 26.0044 8.46591 25.5596 8.10423C25.1147 7.74254 24.5643 7.53538 23.9914 7.514C22.9444 7.514 22.0704 8.322 21.7414 9.814C21.4124 11.306 21.2914 12.843 21.0704 14.357L21.0694 14.358Z" fill="#B9B9B9"/>
<path d="M68.4011 13.963C68.4011 16.303 68.8011 18.41 70.7951 19.703C71.7764 20.356 72.9353 20.6902 74.1136 20.6602C75.292 20.6301 76.4323 20.2372 77.3791 19.535C78.0191 19.858 77.7261 20.205 77.3791 20.523C76.3856 21.5454 75.138 22.285 73.7642 22.6659C72.3905 23.0467 70.9401 23.055 69.5621 22.69C67.638 22.2453 65.9557 21.0843 64.8572 19.4433C63.7588 17.8022 63.3268 15.8043 63.6491 13.856C64.0491 10.648 65.5161 8.20003 68.6491 7.00303C70.1169 6.4442 71.7167 6.32978 73.2491 6.67403C75.7871 7.21903 77.5051 9.24203 77.9121 12.151C77.9961 12.751 78.0261 13.351 78.0921 13.994L68.4011 13.963ZM68.4011 12.706H73.4011C73.1741 11.389 73.0241 10.174 72.7491 8.99503C72.7028 8.62793 72.5372 8.28619 72.2778 8.0224C72.0183 7.75861 71.6794 7.58737 71.3131 7.53503C70.9572 7.51496 70.6034 7.60099 70.2965 7.78222C69.9896 7.96345 69.7434 8.23173 69.5891 8.55304C68.8355 9.80934 68.4268 11.2422 68.4041 12.707L68.4011 12.706Z" fill="#B9B9B9"/>
<path d="M89.8711 11.529C89.4521 10.729 89.1051 9.94296 88.6711 9.22896C88.3678 8.71358 87.9275 8.29247 87.399 8.01246C86.8706 7.73246 86.2749 7.60454 85.6781 7.64296C85.2472 7.64829 84.8282 7.78525 84.4773 8.03549C84.1265 8.28572 83.8605 8.63726 83.7151 9.04296C83.5216 9.44959 83.4756 9.91091 83.5851 10.3477C83.6946 10.7846 83.9527 11.1697 84.3151 11.437C85.178 11.9894 86.0782 12.4812 87.0091 12.909C87.6611 13.238 88.3621 13.466 88.9961 13.819C89.6598 14.1681 90.2261 14.6769 90.6441 15.2995C91.062 15.9221 91.3185 16.639 91.3903 17.3854C91.4621 18.1319 91.3471 18.8844 91.0555 19.5753C90.7639 20.2662 90.305 20.8737 89.7201 21.343C88.6242 22.2481 87.2673 22.7787 85.8481 22.857C83.7716 23.0217 81.6828 22.7861 79.6951 22.163C79.6101 22.1506 79.5284 22.1216 79.4547 22.0776C79.381 22.0335 79.3167 21.9754 79.2655 21.9064C79.2143 21.8375 79.1772 21.7591 79.1564 21.6758C79.1355 21.5925 79.1314 21.5059 79.1441 21.421C79.1441 20.266 79.1441 19.105 79.0781 17.95C79.0781 17.405 79.2871 17.244 79.7061 17.22C80.1529 18.1023 80.6442 18.9614 81.1781 19.794C81.5343 20.3336 82.0277 20.7689 82.6076 21.0549C83.1875 21.341 83.8331 21.4677 84.4781 21.422C85.0224 21.4389 85.5562 21.2698 85.9914 20.9426C86.4266 20.6154 86.7373 20.1495 86.8721 19.622C87.029 19.1214 86.9928 18.5802 86.7708 18.105C86.5487 17.6297 86.1568 17.2548 85.6721 17.054C84.9721 16.665 84.2061 16.396 83.4721 16.078C82.9211 15.839 82.3591 15.617 81.8141 15.366C81.1366 15.0272 80.5572 14.5204 80.1313 13.8941C79.7053 13.2677 79.447 12.5426 79.381 11.788C79.315 11.0334 79.4435 10.2744 79.7543 9.58362C80.0651 8.89281 80.5477 8.29318 81.1561 7.84196C82.2535 6.96917 83.6202 6.50502 85.0221 6.52896C86.6477 6.64233 88.266 6.84262 89.8701 7.12896C90.3011 7.18296 90.4701 7.43996 90.4701 7.91296C90.4401 8.87096 90.4701 9.82796 90.5181 10.78C90.5411 11.251 90.4091 11.529 89.8711 11.529Z" fill="#B9B9B9"/>
<path d="M39.4117 6.48104V9.80304C41.8657 6.55904 43.8707 5.66704 45.8997 6.95404L44.2537 11.144C43.7007 10.7915 43.0812 10.5564 42.4335 10.4531C41.7859 10.3499 41.1239 10.3809 40.4887 10.544C39.5427 10.801 39.3337 11.044 39.3397 12.01C39.3397 14.404 39.3877 16.738 39.4477 19.103C39.5017 21.162 40.0477 21.689 41.7817 21.641C41.8929 21.6543 42.003 21.6764 42.1107 21.707C42.1107 21.827 42.1647 21.94 42.1707 22.06C42.1784 22.1933 42.1784 22.3268 42.1707 22.46H32.5947C32.4267 21.96 32.4627 21.646 33.1217 21.56C34.0917 21.446 34.6117 21.009 34.6217 20.076C34.6777 16.732 34.6777 13.3884 34.6217 10.045C34.6217 9.09304 34.0947 8.72804 33.1217 8.56104C32.9067 8.51904 32.7217 8.30404 32.5217 8.17204C32.6837 8.02804 32.8327 7.80704 33.0217 7.76504C35.1207 7.31304 37.2337 6.90604 39.4117 6.48104Z" fill="#B9B9B9"/>
</svg>
