<svg width="119" height="31" viewBox="0 0 119 31" fill="none" xmlns="http://www.w3.org/2000/svg">
<path d="M0 4.42806H4.66667V21.3447H13.1667V25.5947H0V4.42806ZM15.25 11.2614H19.6667V25.5947H15.25V11.2614ZM17.5 4.09473C18.9167 4.09473 20.0833 5.26139 20.0833 6.67806C20.0833 8.09473 18.9167 9.26139 17.5 9.26139C16.0833 9.26139 14.9167 8.09473 14.9167 6.67806C14.9167 5.26139 16 4.09473 17.5 4.09473ZM38.25 4.42806H42.75V17.0947L47.75 11.2614H53.25L47.4167 17.8447L53.0833 25.5947H47.5L42.75 18.5114V25.5947H38.25V4.42806ZM22.1667 11.2614H26.4167V13.1781H26.5C27.0833 12.0114 28.5833 10.8447 30.75 10.8447C35.25 10.8447 36.0833 13.8447 36.0833 17.6781V25.5114H31.6667V18.5114C31.6667 16.8447 31.6667 14.6781 29.3333 14.6781C27 14.6781 26.6667 16.5114 26.6667 18.3447V25.4281H22.25V11.2614H22.1667Z" fill="#0E76A8"/>
<path d="M62.5833 16.7616C62.5833 15.2616 61.4167 14.0116 59.8333 14.0116C57.9167 14.0116 56.8333 15.3449 56.6667 16.7616H62.5833ZM66.3333 23.0949C64.9167 24.9282 62.5833 25.9282 60.25 25.9282C55.8333 25.9282 52.25 22.9282 52.25 18.3449C52.25 13.7616 55.8333 10.7616 60.25 10.7616C64.4167 10.7616 67 13.7616 67 18.3449V19.7616H56.6667C57 21.4282 58.3333 22.5116 60 22.5116C61.4167 22.5116 62.4167 21.7616 63.1667 20.7616L66.3333 23.0949ZM76.25 14.6782C74 14.6782 72.6667 16.1782 72.6667 18.3449C72.6667 20.5116 74 22.0116 76.25 22.0116C78.5 22.0116 79.8333 20.5116 79.8333 18.3449C79.8333 16.1782 78.5 14.6782 76.25 14.6782ZM83.9167 25.5949H79.8333V23.6782H79.75C79.0833 24.6782 77.3333 25.9282 75.3333 25.9282C71.0833 25.9282 68.25 22.8449 68.25 18.5116C68.25 14.5116 70.75 10.8449 74.8333 10.8449C76.6667 10.8449 78.4167 11.3449 79.4167 12.7616H79.5V4.42822H83.9167V25.5949Z" fill="#0E76A8"/>
<path d="M116.166 0.0114746H90.583C89.333 0.0114746 88.333 1.01147 88.333 2.17814V27.8448C88.333 29.0115 89.333 30.0115 90.583 30.0115H116.166C117.416 30.0115 118.416 29.0115 118.416 27.8448V2.17814C118.416 1.01147 117.416 0.0114746 116.166 0.0114746Z" fill="#0E76A8"/>
<path d="M92.8333 11.2616H97.25V25.5949H92.8333V11.2616ZM95.0833 4.17822C96.5 4.17822 97.6667 5.34489 97.6667 6.76156C97.6667 8.17822 96.5 9.34489 95.0833 9.34489C93.6667 9.34489 92.5 8.17822 92.5 6.76156C92.5 5.26156 93.6667 4.17822 95.0833 4.17822ZM100.083 11.2616H104.333V13.1782H104.417C105 12.0116 106.5 10.8449 108.667 10.8449C113.167 10.8449 114 13.8449 114 17.6782V25.5116H109.583V18.5116C109.583 16.8449 109.583 14.6782 107.25 14.6782C104.917 14.6782 104.583 16.5116 104.583 18.3449V25.4282H100.167V11.2616H100.083Z" fill="white"/>
</svg>
