<svg width="33" height="21" fill="none" xmlns="http://www.w3.org/2000/svg"><path d="M31.24 0H1.76C.788 0 0 .785 0 1.753V18.89c0 .968.788 1.753 1.76 1.753h29.48c.972 0 1.76-.785 1.76-1.753V1.753C33 .785 32.212 0 31.24 0z" fill="#2557D6"/><path fill-rule="evenodd" clip-rule="evenodd" d="M0 9.694h1.585l.358-.855h.8l.356.855h3.119V9.04l.278.657h1.62l.278-.666v.663h7.75l-.003-1.404h.15c.105.004.135.014.135.186v1.218h4.009v-.327c.323.172.826.327 1.488.327h1.687l.36-.855h.8l.354.855h3.25v-.812l.492.812h2.604v-5.37h-2.578v.635l-.36-.634h-2.645v.634l-.332-.634h-3.572c-.598 0-1.123.083-1.548.313v-.313H17.97v.313c-.27-.237-.639-.313-1.048-.313H7.916l-.604 1.387-.62-1.387H3.853v.634l-.311-.634h-2.42L0 6.878v2.816zm10.006-.774h-.951L9.05 5.905 7.706 8.92H6.89L5.543 5.902V8.92H3.656l-.357-.86H1.368l-.36.86H0l1.661-3.85H3.04l1.577 3.645V5.07h1.515l1.214 2.61L8.46 5.07h1.544v3.85zM2.982 7.262l-.635-1.535-.631 1.535h1.266zM13.79 8.92h-3.099V5.07h3.1v.802h-2.172v.693h2.12v.79h-2.12v.768h2.171v.797zm4.368-2.813c0 .613-.413.93-.654 1.026.203.076.376.212.459.324.13.191.153.363.153.706v.757h-.935l-.004-.486c0-.232.023-.565-.146-.75-.136-.135-.342-.165-.676-.165h-.996v1.4h-.928V5.07h2.134c.474 0 .823.013 1.123.185.294.172.47.423.47.853zm-1.173.571c-.127.077-.278.08-.459.08H15.4v-.855h1.142c.162 0 .33.007.44.069.12.056.195.175.195.34 0 .169-.07.304-.191.366zm2.66 2.242H18.7V5.07h.946v3.85zm10.99 0h-1.316l-1.758-2.89v2.89h-1.89l-.36-.86h-1.927l-.35.86h-1.086c-.451 0-1.022-.1-1.346-.426-.326-.327-.495-.77-.495-1.47 0-.57.101-1.093.5-1.505.3-.307.77-.45 1.409-.45h.898v.826h-.88c-.338 0-.529.05-.713.228-.158.162-.267.468-.267.872 0 .412.083.71.255.904.143.152.403.199.647.199h.416L23.68 5.07h1.39l1.57 3.641V5.07h1.413l1.63 2.681V5.07h.951v3.85zm-5.64-1.658l-.642-1.535-.638 1.535h1.28zm8.003 7.805c-.225.326-.664.492-1.259.492h-1.791v-.825h1.784c.177 0 .3-.024.375-.096a.337.337 0 00.11-.251.315.315 0 00-.113-.255c-.068-.058-.166-.085-.327-.085-.871-.03-1.958.027-1.958-1.192 0-.559.358-1.146 1.331-1.146h1.848v-.766h-1.717c-.518 0-.894.123-1.16.314v-.314h-2.54c-.407 0-.883.1-1.109.314v-.314h-4.535v.314c-.36-.258-.97-.314-1.25-.314h-2.992v.314c-.285-.274-.92-.314-1.307-.314H13.04l-.766.822-.717-.822H6.555v5.373h4.906l.79-.836.743.835 3.025.003v-1.264h.297c.401.006.875-.01 1.292-.189v1.45h2.495v-1.4h.12c.154 0 .169.006.169.159v1.241h7.578c.482 0 .984-.122 1.263-.344v.344h2.404c.5 0 .988-.07 1.36-.247v-1.001zM17.972 13c0 1.07-.805 1.29-1.616 1.29H15.2v1.292h-1.803l-1.143-1.275-1.187 1.275H7.392v-3.85h3.73l1.142 1.262 1.18-1.263h2.965c.736 0 1.563.203 1.563 1.269zm-7.376 1.772h-2.28v-.766h2.036v-.786H8.316v-.7h2.325l1.015 1.122-1.06 1.13zm3.676.441l-1.425-1.568 1.425-1.52v3.088zm2.106-1.712h-1.199v-.98h1.21c.335 0 .567.135.567.471 0 .333-.221.509-.578.509zm6.28-1.77h3.097v.797h-2.172v.7h2.119v.785h-2.12v.767l2.173.003v.799h-3.096v-3.85zm-1.19 2.062c.207.075.376.21.455.323.13.188.15.363.154.703v.763h-.932V15.1c0-.231.023-.574-.15-.753-.135-.138-.342-.171-.68-.171h-.992v1.406h-.932v-3.85h2.142c.47 0 .811.02 1.116.181.293.175.477.416.477.855 0 .615-.413.928-.658 1.025zm-.524-.487c-.124.073-.278.08-.458.08h-1.127v-.866H20.5c.165 0 .33.004.443.07.12.062.192.181.192.346a.415.415 0 01-.192.37zm8.375.245c.18.185.277.42.277.816 0 .828-.521 1.215-1.457 1.215h-1.807v-.826h1.8c.176 0 .3-.023.379-.095a.34.34 0 00.11-.251.33.33 0 00-.114-.255c-.071-.059-.169-.085-.33-.085-.868-.03-1.954.026-1.954-1.192 0-.559.353-1.147 1.326-1.147h1.86v.82h-1.702c-.169 0-.279.006-.372.07-.101.062-.14.154-.14.277 0 .145.087.244.204.286.098.034.203.044.361.044l.5.013c.503.013.849.099 1.059.31zM33 12.521h-1.69c-.17 0-.282.005-.376.069-.098.062-.136.155-.136.277a.29.29 0 00.203.287c.098.033.203.043.358.043l.502.014c.508.012.847.099 1.053.31.038.029.06.062.086.095V12.52z" fill="#fff"/></svg>