<svg width="33" height="22" fill="none" xmlns="http://www.w3.org/2000/svg"><path d="M31.24.887H1.76C.788.887 0 1.672 0 2.64v17.137c0 .968.788 1.753 1.76 1.753h29.48c.972 0 1.76-.785 1.76-1.753V2.64c0-.968-.788-1.753-1.76-1.753z" fill="#0079BE"/><path fill-rule="evenodd" clip-rule="evenodd" d="M25.737 11.315c0-4.357-3.651-7.369-7.651-7.367h-3.443c-4.048-.002-7.38 3.011-7.38 7.367 0 3.986 3.332 7.26 7.38 7.24h3.443c4 .02 7.651-3.255 7.651-7.24z" fill="#fff"/><path fill-rule="evenodd" clip-rule="evenodd" d="M14.664 4.565a6.693 6.693 0 00-6.697 6.687c0 3.693 2.998 6.686 6.697 6.687 3.7-.001 6.698-2.994 6.699-6.687 0-3.693-2.999-6.686-6.699-6.687z" fill="#0079BE"/><path fill-rule="evenodd" clip-rule="evenodd" d="M10.43 11.234a4.245 4.245 0 012.726-3.955v7.91a4.244 4.244 0 01-2.725-3.955zm5.765 3.957V7.279a4.243 4.243 0 012.727 3.956 4.245 4.245 0 01-2.727 3.956z" fill="#fff"/></svg>